G04 Layer: BottomSilkLayer*
G04 EasyEDA v6.4.7, 2020-11-14T12:43:57+01:00*
G04 ca67bbdea9ee427383f7cb57cdafcb35,58a91c2aa3f04fa292fc60144c522205,10*
G04 Gerber Generator version 0.2*
G04 Scale: 100 percent, Rotated: No, Reflected: No *
G04 Dimensions in millimeters *
G04 leading zeros omitted , absolute positions ,3 integer and 3 decimal *
%FSLAX33Y33*%
%MOMM*%
G90*
D02*

%ADD10C,0.254000*%
%ADD27C,0.202997*%
%ADD28C,0.200000*%
%ADD29C,0.249999*%
%ADD30C,0.203200*%
%ADD31C,0.152400*%

%LPD*%
G54D27*
G01X36561Y29831D02*
G01X37329Y29831D01*
G01X37359Y29864D01*
G01X35784Y29844D02*
G01X36031Y29834D01*
G01X36548Y29831D01*
G01X36139Y30288D02*
G01X36012Y30158D01*
G01X35897Y30025D01*
G01X35807Y29902D01*
G01X35787Y29866D01*
G01X35784Y29845D01*
G01X37735Y31042D02*
G01X37510Y30999D01*
G01X37277Y30939D01*
G01X37070Y30869D01*
G01X36873Y30786D01*
G01X36670Y30681D01*
G01X36492Y30571D01*
G01X36310Y30437D01*
G01X36152Y30300D01*
G01X38744Y31050D02*
G01X38538Y31065D01*
G01X38242Y31069D01*
G01X37958Y31062D01*
G01X37741Y31043D01*
G01X40011Y30744D02*
G01X39700Y30844D01*
G01X39380Y30929D01*
G01X39060Y30999D01*
G01X38755Y31049D01*
G01X41069Y30265D02*
G01X41050Y30286D01*
G01X40989Y30321D01*
G01X40710Y30456D01*
G01X40360Y30607D01*
G01X40024Y30739D01*
G01X40807Y30342D02*
G01X40989Y30285D01*
G01X41068Y30265D01*
G01X39523Y30634D02*
G01X39839Y30587D01*
G01X40145Y30526D01*
G01X40480Y30441D01*
G01X40793Y30347D01*
G01X38603Y30618D02*
G01X38816Y30642D01*
G01X39063Y30652D01*
G01X39305Y30649D01*
G01X39516Y30635D01*
G01X37802Y30316D02*
G01X37982Y30421D01*
G01X38167Y30502D01*
G01X38377Y30569D01*
G01X38594Y30617D01*
G01X37441Y29972D02*
G01X37509Y30053D01*
G01X37603Y30149D01*
G01X37701Y30238D01*
G01X37798Y30313D01*
G01X37359Y29864D02*
G01X37395Y29909D01*
G01X37441Y29970D01*
G01X38566Y27646D02*
G01X38600Y27673D01*
G01X38412Y28622D01*
G01X37885Y27619D02*
G01X38441Y27623D01*
G01X38527Y27630D01*
G01X38565Y27645D01*
G01X37217Y27632D02*
G01X37422Y27623D01*
G01X37875Y27619D01*
G01X37142Y27954D02*
G01X37150Y27880D01*
G01X37173Y27764D01*
G01X37197Y27677D01*
G01X37217Y27633D01*
G01X37159Y28017D02*
G01X37151Y28005D01*
G01X37147Y27992D01*
G01X37143Y27973D01*
G01X37142Y27955D01*
G01X37581Y28035D02*
G01X37264Y28031D01*
G01X37159Y28017D01*
G01X37993Y28047D02*
G01X37864Y28038D01*
G01X37588Y28035D01*
G01X37850Y28820D02*
G01X37993Y28047D01*
G01X37715Y29605D02*
G01X37716Y29551D01*
G01X37733Y29434D01*
G01X37847Y28837D01*
G01X37963Y29634D02*
G01X37774Y29627D01*
G01X37734Y29619D01*
G01X37715Y29606D01*
G01X38209Y29605D02*
G01X38196Y29625D01*
G01X38170Y29633D01*
G01X38115Y29636D01*
G01X37970Y29634D01*
G01X38412Y28622D02*
G01X38210Y29604D01*
G01X35601Y27673D02*
G01X35744Y27628D01*
G01X35900Y27600D01*
G01X36065Y27592D01*
G01X36215Y27605D01*
G01X35245Y27909D02*
G01X35255Y27890D01*
G01X35281Y27865D01*
G01X35370Y27798D01*
G01X35484Y27729D01*
G01X35597Y27674D01*
G01X35438Y28174D02*
G01X35390Y28128D01*
G01X35322Y28042D01*
G01X35265Y27956D01*
G01X35245Y27910D01*
G01X35512Y28162D02*
G01X35487Y28175D01*
G01X35468Y28181D01*
G01X35453Y28181D01*
G01X35439Y28175D01*
G01X35947Y28005D02*
G01X35856Y28012D01*
G01X35765Y28035D01*
G01X35662Y28079D01*
G01X35519Y28158D01*
G01X36326Y28231D02*
G01X36297Y28178D01*
G01X36265Y28135D01*
G01X36223Y28095D01*
G01X36179Y28064D01*
G01X36130Y28039D01*
G01X36072Y28020D01*
G01X35953Y28005D01*
G01X36360Y28443D02*
G01X36358Y28369D01*
G01X36353Y28321D01*
G01X36343Y28277D01*
G01X36327Y28233D01*
G01X35847Y29239D02*
G01X35952Y29196D01*
G01X36049Y29134D01*
G01X36141Y29050D01*
G01X36213Y28956D01*
G01X36273Y28850D01*
G01X36321Y28724D01*
G01X36351Y28587D01*
G01X36360Y28454D01*
G01X35361Y29142D02*
G01X35451Y29210D01*
G01X35570Y29252D01*
G01X35698Y29263D01*
G01X35841Y29241D01*
G01X35308Y29103D02*
G01X35316Y29106D01*
G01X35330Y29114D01*
G01X35347Y29128D01*
G01X35361Y29141D01*
G01X34986Y29378D02*
G01X35034Y29328D01*
G01X35147Y29229D01*
G01X35256Y29139D01*
G01X35307Y29103D01*
G01X35206Y29583D02*
G01X35134Y29537D01*
G01X35058Y29475D01*
G01X35001Y29414D01*
G01X34987Y29391D01*
G01X34985Y29379D01*
G01X35635Y29672D02*
G01X35506Y29669D01*
G01X35405Y29656D01*
G01X35313Y29630D01*
G01X35210Y29585D01*
G01X35931Y29639D02*
G01X35799Y29664D01*
G01X35639Y29672D01*
G01X36890Y28519D02*
G01X36854Y28711D01*
G01X36793Y28891D01*
G01X36701Y29071D01*
G01X36593Y29221D01*
G01X36454Y29363D01*
G01X36307Y29474D01*
G01X36128Y29570D01*
G01X35947Y29635D01*
G01X36221Y27606D02*
G01X36379Y27645D01*
G01X36519Y27706D01*
G01X36639Y27788D01*
G01X36744Y27900D01*
G01X36824Y28032D01*
G01X36872Y28171D01*
G01X36896Y28337D01*
G01X36892Y28504D01*
G01X41264Y29634D02*
G01X41022Y29630D01*
G01X41018Y29590D01*
G01X41555Y27779D02*
G01X41632Y27725D01*
G01X41716Y27680D01*
G01X41814Y27641D01*
G01X41917Y27613D01*
G01X42015Y27596D01*
G01X42123Y27590D01*
G01X42223Y27595D01*
G01X42322Y27610D01*
G01X41301Y28161D02*
G01X41341Y28061D01*
G01X41403Y27955D01*
G01X41476Y27857D01*
G01X41552Y27781D01*
G01X41018Y29590D02*
G01X41133Y28950D01*
G01X41299Y28166D01*
G01X41519Y29605D02*
G01X41505Y29625D01*
G01X41479Y29633D01*
G01X41421Y29636D01*
G01X41271Y29634D01*
G01X41661Y28918D02*
G01X41519Y29604D01*
G01X41832Y28173D02*
G01X41803Y28250D01*
G01X41774Y28361D01*
G01X41664Y28902D01*
G01X42092Y28012D02*
G01X41997Y28021D01*
G01X41962Y28031D01*
G01X41931Y28046D01*
G01X41905Y28066D01*
G01X41878Y28095D01*
G01X41834Y28169D01*
G01X42251Y28054D02*
G01X42217Y28031D01*
G01X42187Y28019D01*
G01X42153Y28014D01*
G01X42095Y28012D01*
G01X42328Y28138D02*
G01X42317Y28120D01*
G01X42297Y28097D01*
G01X42276Y28075D01*
G01X42252Y28055D01*
G01X42581Y28100D02*
G01X42464Y28164D01*
G01X42401Y28187D01*
G01X42378Y28187D01*
G01X42360Y28180D01*
G01X42345Y28166D01*
G01X42329Y28140D01*
G01X42761Y27982D02*
G01X42746Y27997D01*
G01X42707Y28023D01*
G01X42584Y28099D01*
G01X42640Y27774D02*
G01X42686Y27827D01*
G01X42730Y27891D01*
G01X42756Y27945D01*
G01X42762Y27968D01*
G01X42761Y27981D01*
G01X42330Y27612D02*
G01X42422Y27638D01*
G01X42501Y27673D01*
G01X42573Y27718D01*
G01X42638Y27772D01*
G01X40307Y28064D02*
G01X40283Y28035D01*
G01X40254Y28010D01*
G01X40224Y27994D01*
G01X40191Y27985D01*
G01X40151Y27983D01*
G01X40111Y27987D01*
G01X40017Y28017D01*
G01X40227Y28489D02*
G01X40285Y28367D01*
G01X40321Y28246D01*
G01X40329Y28138D01*
G01X40322Y28098D01*
G01X40308Y28066D01*
G01X39669Y28540D02*
G01X39673Y28633D01*
G01X39687Y28673D01*
G01X39707Y28705D01*
G01X39734Y28730D01*
G01X39772Y28750D01*
G01X39857Y28761D01*
G01X39954Y28739D01*
G01X40055Y28684D01*
G01X40143Y28605D01*
G01X40221Y28499D01*
G01X40013Y28019D02*
G01X39965Y28047D01*
G01X39906Y28097D01*
G01X39794Y28235D01*
G01X39711Y28391D01*
G01X39684Y28465D01*
G01X39670Y28535D01*
G01X39606Y28894D02*
G01X39541Y28848D01*
G01X39505Y28894D01*
G01X39107Y27538D02*
G01X39218Y27475D01*
G01X39342Y27422D01*
G01X39478Y27379D01*
G01X39634Y27343D01*
G01X39797Y27319D01*
G01X39966Y27308D01*
G01X40124Y27310D01*
G01X40282Y27323D01*
G01X38848Y27777D02*
G01X38854Y27762D01*
G01X38874Y27737D01*
G01X38943Y27668D01*
G01X39024Y27598D01*
G01X39104Y27539D01*
G01X38968Y27797D02*
G01X38911Y27796D01*
G01X38874Y27793D01*
G01X38854Y27787D01*
G01X38850Y27783D01*
G01X38848Y27778D01*
G01X39143Y27755D02*
G01X39109Y27778D01*
G01X39078Y27791D01*
G01X39041Y27796D01*
G01X38971Y27797D01*
G01X40065Y27519D02*
G01X39787Y27526D01*
G01X39548Y27565D01*
G01X39431Y27600D01*
G01X39331Y27640D01*
G01X39239Y27688D01*
G01X39149Y27750D01*
G01X40878Y28109D02*
G01X40861Y27983D01*
G01X40822Y27872D01*
G01X40760Y27776D01*
G01X40669Y27689D01*
G01X40553Y27620D01*
G01X40423Y27572D01*
G01X40270Y27539D01*
G01X40081Y27520D01*
G01X40771Y28562D02*
G01X40826Y28438D01*
G01X40859Y28333D01*
G01X40876Y28231D01*
G01X40879Y28114D01*
G01X40250Y29075D02*
G01X40417Y28980D01*
G01X40552Y28870D01*
G01X40665Y28739D01*
G01X40767Y28569D01*
G01X39813Y29194D02*
G01X39954Y29174D01*
G01X40052Y29151D01*
G01X40140Y29123D01*
G01X40246Y29077D01*
G01X39065Y28999D02*
G01X39122Y29052D01*
G01X39190Y29097D01*
G01X39282Y29141D01*
G01X39371Y29169D01*
G01X39468Y29189D01*
G01X39580Y29201D01*
G01X39803Y29195D01*
G01X38955Y28650D02*
G01X38955Y28753D01*
G01X38972Y28843D01*
G01X39005Y28918D01*
G01X39063Y28996D01*
G01X39017Y28413D02*
G01X38987Y28478D01*
G01X38970Y28528D01*
G01X38960Y28584D01*
G01X38955Y28647D01*
G01X39370Y28052D02*
G01X39267Y28117D01*
G01X39169Y28205D01*
G01X39083Y28306D01*
G01X39019Y28409D01*
G01X39528Y28044D02*
G01X39524Y28029D01*
G01X39516Y28018D01*
G01X39505Y28011D01*
G01X39489Y28009D01*
G01X39468Y28012D01*
G01X39443Y28019D01*
G01X39373Y28050D01*
G01X39352Y28487D02*
G01X39478Y28187D01*
G01X39528Y28044D01*
G01X39180Y28919D02*
G01X39222Y28797D01*
G01X39349Y28493D01*
G01X39329Y28940D02*
G01X39259Y28939D01*
G01X39217Y28936D01*
G01X39190Y28929D01*
G01X39180Y28920D01*
G01X39505Y28894D02*
G01X39480Y28922D01*
G01X39457Y28934D01*
G01X39419Y28939D01*
G01X39333Y28940D01*
G01X39891Y27851D02*
G01X39917Y27884D01*
G01X40017Y27837D01*
G01X40198Y28861D02*
G01X40113Y28903D01*
G01X40035Y28932D01*
G01X39957Y28951D01*
G01X39875Y28961D01*
G01X39797Y28960D01*
G01X39729Y28949D01*
G01X39667Y28928D01*
G01X39611Y28897D01*
G01X40536Y28522D02*
G01X40476Y28606D01*
G01X40384Y28708D01*
G01X40284Y28800D01*
G01X40201Y28859D01*
G01X40646Y28026D02*
G01X40657Y28134D01*
G01X40641Y28259D01*
G01X40600Y28392D01*
G01X40539Y28517D01*
G01X40449Y27813D02*
G01X40482Y27829D01*
G01X40515Y27851D01*
G01X40571Y27900D01*
G01X40596Y27931D01*
G01X40618Y27963D01*
G01X40634Y27993D01*
G01X40645Y28024D01*
G01X40244Y27785D02*
G01X40317Y27783D01*
G01X40361Y27787D01*
G01X40402Y27795D01*
G01X40447Y27812D01*
G01X40017Y27837D02*
G01X40071Y27814D01*
G01X40122Y27798D01*
G01X40171Y27790D01*
G01X40241Y27785D01*
G01X39683Y27782D02*
G01X39764Y27786D01*
G01X39817Y27796D01*
G01X39853Y27814D01*
G01X39889Y27849D01*
G01X39089Y28005D02*
G01X39228Y27909D01*
G01X39369Y27842D01*
G01X39515Y27799D01*
G01X39677Y27782D01*
G01X39000Y29253D02*
G01X38931Y29202D01*
G01X38872Y29143D01*
G01X38822Y29079D01*
G01X38782Y29010D01*
G01X38752Y28936D01*
G01X38731Y28859D01*
G01X38719Y28765D01*
G01X38719Y28683D01*
G01X38730Y28585D01*
G01X38750Y28500D01*
G01X38779Y28416D01*
G01X38825Y28319D01*
G01X38932Y28161D01*
G01X39076Y28016D01*
G01X40321Y29262D02*
G01X40163Y29324D01*
G01X39995Y29368D01*
G01X39821Y29395D01*
G01X39633Y29405D01*
G01X39449Y29395D01*
G01X39277Y29366D01*
G01X39134Y29321D01*
G01X39009Y29259D01*
G01X40901Y27575D02*
G01X40976Y27658D01*
G01X41035Y27750D01*
G01X41077Y27849D01*
G01X41105Y27955D01*
G01X41117Y28067D01*
G01X41113Y28201D01*
G01X41095Y28318D01*
G01X41057Y28455D01*
G01X41001Y28591D01*
G01X40940Y28704D01*
G01X40867Y28814D01*
G01X40783Y28918D01*
G01X40688Y29015D01*
G01X40583Y29104D01*
G01X40467Y29184D01*
G01X40342Y29252D01*
G01X40295Y27324D02*
G01X40479Y27359D01*
G01X40642Y27412D01*
G01X40778Y27481D01*
G01X40897Y27571D01*
G01X15883Y29133D02*
G01X16124Y29133D01*
G01X16139Y29077D01*
G01X15981Y28677D02*
G01X15769Y28688D01*
G01X15656Y28708D01*
G01X16191Y28876D02*
G01X16226Y28737D01*
G01X16227Y28707D01*
G01X16219Y28689D01*
G01X16197Y28678D01*
G01X16162Y28673D01*
G01X15989Y28676D01*
G01X16139Y29077D02*
G01X16190Y28878D01*
G01X15458Y29049D02*
G01X15505Y29088D01*
G01X15579Y29114D01*
G01X15696Y29128D01*
G01X15874Y29133D01*
G01X15654Y28708D02*
G01X15588Y28736D01*
G01X15536Y28771D01*
G01X15493Y28811D01*
G01X15457Y28860D01*
G01X15435Y28911D01*
G01X15428Y28959D01*
G01X15434Y29004D01*
G01X15456Y29046D01*
G01X16263Y27401D02*
G01X16032Y27412D01*
G01X15878Y27432D01*
G01X16556Y27423D02*
G01X16554Y27410D01*
G01X16547Y27404D01*
G01X16515Y27398D01*
G01X16271Y27401D01*
G01X16415Y27975D02*
G01X16489Y27710D01*
G01X16556Y27424D01*
G01X15843Y27974D02*
G01X16172Y27990D01*
G01X16339Y27986D01*
G01X16415Y27975D01*
G01X15655Y27931D02*
G01X15732Y27954D01*
G01X15841Y27974D01*
G01X15555Y27652D02*
G01X15541Y27691D01*
G01X15534Y27736D01*
G01X15535Y27779D01*
G01X15545Y27818D01*
G01X15561Y27852D01*
G01X15583Y27881D01*
G01X15612Y27907D01*
G01X15651Y27929D01*
G01X15877Y27432D02*
G01X15758Y27470D01*
G01X15669Y27517D01*
G01X15601Y27576D01*
G01X15577Y27609D01*
G01X15556Y27649D01*
G01X16992Y29783D02*
G01X16970Y29863D01*
G01X16136Y29856D01*
G01X16778Y26675D02*
G01X17671Y26680D01*
G01X15242Y26824D02*
G01X15507Y26743D01*
G01X15756Y26704D01*
G01X16112Y26684D01*
G01X16748Y26675D01*
G01X14488Y27753D02*
G01X14503Y27591D01*
G01X14540Y27451D01*
G01X14598Y27321D01*
G01X14685Y27192D01*
G01X14796Y27077D01*
G01X14920Y26982D01*
G01X15064Y26899D01*
G01X15227Y26829D01*
G01X14743Y28279D02*
G01X14625Y28179D01*
G01X14583Y28125D01*
G01X14549Y28067D01*
G01X14521Y27998D01*
G01X14503Y27928D01*
G01X14488Y27760D01*
G01X14849Y28363D02*
G01X14842Y28354D01*
G01X14822Y28337D01*
G01X14744Y28280D01*
G01X14749Y28429D02*
G01X14815Y28390D01*
G01X14841Y28371D01*
G01X14849Y28363D01*
G01X14373Y28923D02*
G01X14417Y28787D01*
G01X14499Y28646D01*
G01X14608Y28528D01*
G01X14743Y28433D01*
G01X14362Y29132D02*
G01X14363Y29021D01*
G01X14373Y28925D01*
G01X14916Y29755D02*
G01X14797Y29708D01*
G01X14691Y29654D01*
G01X14593Y29586D01*
G01X14518Y29516D01*
G01X14457Y29437D01*
G01X14408Y29344D01*
G01X14378Y29251D01*
G01X14362Y29141D01*
G01X16136Y29856D02*
G01X15566Y29849D01*
G01X15286Y29837D01*
G01X15113Y29812D01*
G01X14924Y29758D01*
G01X17758Y26785D02*
G01X16994Y29778D01*
G01X17671Y26681D02*
G01X17681Y26686D01*
G01X17696Y26698D01*
G01X17724Y26728D01*
G01X17749Y26763D01*
G01X17755Y26774D01*
G01X17758Y26785D01*
G01X23270Y28402D02*
G01X23205Y28393D01*
G01X23039Y28395D01*
G01X22852Y28410D01*
G01X22741Y28428D01*
G01X23101Y29100D02*
G01X23202Y28720D01*
G01X23270Y28403D01*
G01X22897Y29133D02*
G01X23010Y29132D01*
G01X23062Y29128D01*
G01X23087Y29120D01*
G01X23100Y29101D01*
G01X22375Y29008D02*
G01X22447Y29065D01*
G01X22555Y29105D01*
G01X22694Y29126D01*
G01X22888Y29133D01*
G01X22344Y28739D02*
G01X22331Y28816D01*
G01X22333Y28893D01*
G01X22347Y28958D01*
G01X22358Y28984D01*
G01X22374Y29007D01*
G01X22737Y28429D02*
G01X22599Y28479D01*
G01X22482Y28550D01*
G01X22436Y28590D01*
G01X22395Y28637D01*
G01X22367Y28682D01*
G01X22345Y28735D01*
G01X23968Y29783D02*
G01X23945Y29863D01*
G01X23104Y29856D01*
G01X24189Y26670D02*
G01X24646Y26681D01*
G01X23736Y26689D02*
G01X23766Y26679D01*
G01X23833Y26674D01*
G01X24179Y26670D01*
G01X23600Y27168D02*
G01X23688Y26838D01*
G01X23736Y26689D01*
G01X23470Y27643D02*
G01X23598Y27175D01*
G01X23112Y27668D02*
G01X23369Y27658D01*
G01X23469Y27643D01*
G01X21782Y28000D02*
G01X21918Y27919D01*
G01X22049Y27856D01*
G01X22188Y27803D01*
G01X22336Y27759D01*
G01X22509Y27722D01*
G01X22683Y27696D01*
G01X22888Y27677D01*
G01X23094Y27668D01*
G01X21246Y28815D02*
G01X21266Y28698D01*
G01X21299Y28586D01*
G01X21348Y28470D01*
G01X21405Y28368D01*
G01X21482Y28264D01*
G01X21564Y28174D01*
G01X21666Y28083D01*
G01X21773Y28006D01*
G01X21882Y29771D02*
G01X21726Y29712D01*
G01X21580Y29630D01*
G01X21468Y29537D01*
G01X21371Y29420D01*
G01X21304Y29296D01*
G01X21261Y29158D01*
G01X21240Y29006D01*
G01X21245Y28829D01*
G01X23104Y29856D02*
G01X22539Y29850D01*
G01X22261Y29839D01*
G01X22073Y29818D01*
G01X21889Y29773D01*
G01X24733Y26785D02*
G01X23969Y29778D01*
G01X24647Y26681D02*
G01X24660Y26689D01*
G01X24672Y26699D01*
G01X24701Y26729D01*
G01X24725Y26763D01*
G01X24731Y26774D01*
G01X24733Y26785D01*
G01X29335Y27426D02*
G01X28623Y27426D01*
G01X28586Y27385D01*
G01X28716Y26681D02*
G01X29832Y26671D01*
G01X31175Y26681D01*
G01X28548Y27308D02*
G01X28620Y26995D01*
G01X28683Y26769D01*
G01X28715Y26682D01*
G01X28586Y27385D02*
G01X28572Y27368D01*
G01X28559Y27346D01*
G01X28551Y27327D01*
G01X28548Y27309D01*
G01X30498Y29782D02*
G01X30476Y29860D01*
G01X29544Y29860D01*
G01X29465Y29757D01*
G01X29756Y28622D01*
G01X30047Y27457D02*
G01X30045Y27446D01*
G01X30031Y27438D01*
G01X29967Y27431D01*
G01X29356Y27426D01*
G01X29756Y28622D02*
G01X30047Y27457D01*
G01X31264Y26785D02*
G01X30500Y29777D01*
G01X31177Y26681D02*
G01X31189Y26688D01*
G01X31200Y26697D01*
G01X31231Y26729D01*
G01X31254Y26761D01*
G01X31261Y26774D01*
G01X31264Y26785D01*
G01X32043Y29860D02*
G01X31340Y29860D01*
G01X31309Y29817D01*
G01X32971Y26662D02*
G01X33134Y26645D01*
G01X33364Y26634D01*
G01X33615Y26631D01*
G01X33810Y26639D01*
G01X31823Y27612D02*
G01X31895Y27429D01*
G01X31984Y27265D01*
G01X32102Y27108D01*
G01X32229Y26983D01*
G01X32374Y26877D01*
G01X32552Y26783D01*
G01X32735Y26716D01*
G01X32953Y26665D01*
G01X31279Y29740D02*
G01X31532Y28719D01*
G01X31821Y27617D01*
G01X31309Y29817D02*
G01X31298Y29799D01*
G01X31288Y29778D01*
G01X31281Y29756D01*
G01X31279Y29741D01*
G01X32754Y29834D02*
G01X32726Y29850D01*
G01X32642Y29856D01*
G01X32063Y29860D01*
G01X32896Y29176D02*
G01X32755Y29832D01*
G01X32668Y29133D02*
G01X32791Y29135D01*
G01X32856Y29140D01*
G01X32888Y29153D01*
G01X32894Y29162D01*
G01X32896Y29174D01*
G01X32478Y29125D02*
G01X32535Y29131D01*
G01X32665Y29133D01*
G01X32770Y27953D02*
G01X32602Y28597D01*
G01X32477Y29124D01*
G01X33081Y27453D02*
G01X32988Y27522D01*
G01X32905Y27629D01*
G01X32835Y27767D01*
G01X32773Y27945D01*
G01X33470Y27382D02*
G01X33349Y27385D01*
G01X33243Y27397D01*
G01X33162Y27418D01*
G01X33084Y27451D01*
G01X33799Y27426D02*
G01X33647Y27390D01*
G01X33474Y27382D01*
G01X34024Y27471D02*
G01X33922Y27457D01*
G01X33802Y27427D01*
G01X34204Y27095D02*
G01X34142Y27336D01*
G01X34111Y27431D01*
G01X34096Y27456D01*
G01X34081Y27467D01*
G01X34027Y27471D01*
G01X34261Y26756D02*
G01X34267Y26787D01*
G01X34262Y26841D01*
G01X34205Y27088D01*
G01X34226Y26700D02*
G01X34233Y26707D01*
G01X34244Y26723D01*
G01X34253Y26739D01*
G01X34261Y26756D01*
G01X33817Y26639D02*
G01X34090Y26669D01*
G01X34183Y26685D01*
G01X34225Y26699D01*
G01X19509Y26618D02*
G01X19813Y26619D01*
G01X18574Y26807D02*
G01X18837Y26718D01*
G01X19051Y26664D01*
G01X19270Y26632D01*
G01X19499Y26618D01*
G01X18356Y26897D02*
G01X18423Y26866D01*
G01X18571Y26808D01*
G01X18144Y27646D02*
G01X18238Y27284D01*
G01X18356Y26898D01*
G01X18182Y27707D02*
G01X18167Y27688D01*
G01X18155Y27670D01*
G01X18147Y27655D01*
G01X18144Y27646D01*
G01X18465Y27670D02*
G01X18362Y27729D01*
G01X18289Y27753D01*
G01X18259Y27754D01*
G01X18234Y27748D01*
G01X18210Y27734D01*
G01X18184Y27709D01*
G01X18998Y27417D02*
G01X18871Y27462D01*
G01X18737Y27520D01*
G01X18470Y27667D01*
G01X19383Y27375D02*
G01X19153Y27382D01*
G01X19083Y27393D01*
G01X19002Y27416D01*
G01X19724Y27409D02*
G01X19667Y27390D01*
G01X19616Y27380D01*
G01X19390Y27375D01*
G01X19992Y27686D02*
G01X19975Y27644D01*
G01X19951Y27600D01*
G01X19890Y27522D01*
G01X19813Y27457D01*
G01X19728Y27411D01*
G01X19993Y28317D02*
G01X20016Y28168D01*
G01X20023Y27988D01*
G01X20015Y27808D01*
G01X19993Y27690D01*
G01X19291Y29120D02*
G01X19423Y29063D01*
G01X19535Y28996D01*
G01X19646Y28909D01*
G01X19738Y28817D01*
G01X19818Y28713D01*
G01X19892Y28588D01*
G01X19948Y28463D01*
G01X19990Y28328D01*
G01X18687Y29141D02*
G01X18823Y29158D01*
G01X18994Y29161D01*
G01X19166Y29147D01*
G01X19287Y29122D01*
G01X18220Y28900D02*
G01X18340Y28988D01*
G01X18453Y29054D01*
G01X18566Y29105D01*
G01X18682Y29140D01*
G01X18065Y28781D02*
G01X18120Y28821D01*
G01X18218Y28898D01*
G01X17889Y28780D02*
G01X17918Y28768D01*
G01X17968Y28763D01*
G01X18022Y28767D01*
G01X18063Y28780D01*
G01X17654Y29606D02*
G01X17683Y29473D01*
G01X17763Y29178D01*
G01X17846Y28900D01*
G01X17888Y28781D01*
G01X17973Y29771D02*
G01X17862Y29729D01*
G01X17755Y29680D01*
G01X17681Y29636D01*
G01X17654Y29607D01*
G01X19420Y29866D02*
G01X19254Y29893D01*
G01X19080Y29909D01*
G01X18886Y29915D01*
G01X18705Y29909D01*
G01X18524Y29893D01*
G01X18332Y29864D01*
G01X18148Y29823D01*
G01X17986Y29776D01*
G01X20221Y29540D02*
G01X20043Y29643D01*
G01X19848Y29732D01*
G01X19644Y29807D01*
G01X19428Y29864D01*
G01X21059Y28312D02*
G01X21014Y28488D01*
G01X20945Y28672D01*
G01X20865Y28836D01*
G01X20762Y29005D01*
G01X20652Y29152D01*
G01X20528Y29288D01*
G01X20381Y29422D01*
G01X20234Y29532D01*
G01X20661Y26900D02*
G01X20788Y27008D01*
G01X20895Y27136D01*
G01X20986Y27295D01*
G01X21048Y27459D01*
G01X21087Y27639D01*
G01X21105Y27849D01*
G01X21096Y28074D01*
G01X21063Y28293D01*
G01X19814Y26619D02*
G01X20071Y26656D01*
G01X20284Y26711D01*
G01X20478Y26790D01*
G01X20654Y26896D01*
G01X26470Y26618D02*
G01X26773Y26619D01*
G01X25535Y26807D02*
G01X25789Y26721D01*
G01X26012Y26664D01*
G01X26231Y26632D01*
G01X26460Y26618D01*
G01X25317Y26897D02*
G01X25384Y26866D01*
G01X25532Y26808D01*
G01X25105Y27646D02*
G01X25199Y27284D01*
G01X25317Y26898D01*
G01X25143Y27707D02*
G01X25127Y27687D01*
G01X25115Y27670D01*
G01X25107Y27654D01*
G01X25105Y27646D01*
G01X25426Y27670D02*
G01X25322Y27729D01*
G01X25286Y27744D01*
G01X25247Y27753D01*
G01X25218Y27754D01*
G01X25192Y27747D01*
G01X25169Y27733D01*
G01X25145Y27709D01*
G01X25959Y27417D02*
G01X25832Y27462D01*
G01X25697Y27520D01*
G01X25431Y27667D01*
G01X26344Y27375D02*
G01X26113Y27382D01*
G01X26043Y27393D01*
G01X25962Y27416D01*
G01X26685Y27409D02*
G01X26628Y27390D01*
G01X26576Y27380D01*
G01X26351Y27375D01*
G01X26953Y27686D02*
G01X26934Y27640D01*
G01X26912Y27600D01*
G01X26851Y27522D01*
G01X26809Y27483D01*
G01X26770Y27454D01*
G01X26689Y27411D01*
G01X26954Y28317D02*
G01X26976Y28175D01*
G01X26984Y28002D01*
G01X26977Y27821D01*
G01X26954Y27690D01*
G01X26251Y29120D02*
G01X26374Y29068D01*
G01X26496Y28996D01*
G01X26607Y28909D01*
G01X26698Y28817D01*
G01X26779Y28713D01*
G01X26853Y28588D01*
G01X26908Y28463D01*
G01X26951Y28328D01*
G01X25647Y29141D02*
G01X25784Y29158D01*
G01X25955Y29161D01*
G01X26127Y29147D01*
G01X26248Y29122D01*
G01X25181Y28900D02*
G01X25296Y28985D01*
G01X25414Y29054D01*
G01X25527Y29105D01*
G01X25643Y29140D01*
G01X25025Y28781D02*
G01X25081Y28821D01*
G01X25179Y28898D01*
G01X24850Y28780D02*
G01X24863Y28773D01*
G01X24880Y28768D01*
G01X24929Y28763D01*
G01X24983Y28767D01*
G01X25024Y28780D01*
G01X24615Y29606D02*
G01X24646Y29464D01*
G01X24724Y29178D01*
G01X24806Y28900D01*
G01X24849Y28781D01*
G01X24934Y29771D02*
G01X24810Y29724D01*
G01X24716Y29680D01*
G01X24641Y29636D01*
G01X24615Y29607D01*
G01X26381Y29866D02*
G01X26215Y29893D01*
G01X26041Y29909D01*
G01X25847Y29915D01*
G01X25666Y29909D01*
G01X25485Y29893D01*
G01X25293Y29864D01*
G01X25108Y29823D01*
G01X24947Y29776D01*
G01X27182Y29540D02*
G01X27012Y29639D01*
G01X26809Y29732D01*
G01X26605Y29807D01*
G01X26389Y29864D01*
G01X28020Y28312D02*
G01X27970Y28502D01*
G01X27906Y28672D01*
G01X27819Y28850D01*
G01X27723Y29005D01*
G01X27603Y29164D01*
G01X27478Y29299D01*
G01X27342Y29422D01*
G01X27195Y29532D01*
G01X27622Y26900D02*
G01X27759Y27018D01*
G01X27863Y27147D01*
G01X27947Y27295D01*
G01X28012Y27473D01*
G01X28050Y27654D01*
G01X28066Y27866D01*
G01X28056Y28074D01*
G01X28024Y28293D01*
G01X26774Y26619D02*
G01X27032Y26656D01*
G01X27244Y26711D01*
G01X27446Y26794D01*
G01X27615Y26896D01*
G01X37593Y27301D02*
G01X37478Y27456D01*
G01X36709Y27456D01*
G01X38214Y25586D02*
G01X38477Y25496D01*
G01X38774Y25411D01*
G01X39054Y25345D01*
G01X39355Y25289D01*
G01X39650Y25248D01*
G01X39909Y25225D01*
G01X40170Y25219D01*
G01X40370Y25228D01*
G01X37046Y26207D02*
G01X37301Y26038D01*
G01X37610Y25862D01*
G01X37905Y25715D01*
G01X38203Y25590D01*
G01X36176Y27048D02*
G01X36348Y26842D01*
G01X36567Y26615D01*
G01X36804Y26398D01*
G01X37037Y26213D01*
G01X35931Y27440D02*
G01X35942Y27403D01*
G01X35990Y27316D01*
G01X36172Y27053D01*
G01X36709Y27456D02*
G01X36138Y27452D01*
G01X35931Y27441D01*
G01X38146Y26747D02*
G01X38004Y26864D01*
G01X37859Y27000D01*
G01X37716Y27152D01*
G01X37597Y27296D01*
G01X40657Y26001D02*
G01X40315Y26013D01*
G01X39979Y26047D01*
G01X39624Y26109D01*
G01X39309Y26189D01*
G01X39007Y26289D01*
G01X38697Y26419D01*
G01X38431Y26560D01*
G01X38166Y26733D01*
G01X41720Y26175D02*
G01X41485Y26097D01*
G01X41246Y26045D01*
G01X40974Y26012D01*
G01X40670Y26001D01*
G01X42785Y27111D02*
G01X42695Y26962D01*
G01X42594Y26821D01*
G01X42481Y26690D01*
G01X42348Y26560D01*
G01X42215Y26450D01*
G01X42060Y26345D01*
G01X41895Y26252D01*
G01X41733Y26180D01*
G01X42873Y27285D02*
G01X42842Y27220D01*
G01X42786Y27114D01*
G01X42846Y27048D02*
G01X42870Y27197D01*
G01X42878Y27292D01*
G01X42873Y27286D01*
G01X42550Y26302D02*
G01X42648Y26469D01*
G01X42731Y26649D01*
G01X42794Y26831D01*
G01X42844Y27039D01*
G01X42001Y25753D02*
G01X42147Y25865D01*
G01X42301Y26009D01*
G01X42443Y26162D01*
G01X42547Y26297D01*
G01X40387Y25230D02*
G01X40613Y25257D01*
G01X40849Y25298D01*
G01X41058Y25346D01*
G01X41259Y25404D01*
G01X41465Y25477D01*
G01X41646Y25554D01*
G01X41816Y25641D01*
G01X41988Y25745D01*
G54D10*
G01X36587Y63343D02*
G01X36587Y64543D01*
G01X34537Y63143D02*
G01X33537Y63143D01*
G01X34537Y64743D02*
G01X33537Y64743D01*
G01X35337Y63143D02*
G01X36337Y63143D01*
G01X35337Y64743D02*
G01X36337Y64743D01*
G01X33287Y63343D02*
G01X33287Y64543D01*
G01X33487Y63143D02*
G01X33537Y63143D01*
G01X33487Y64743D02*
G01X33537Y64743D01*
G01X36387Y63143D02*
G01X36337Y63143D01*
G01X36387Y64743D02*
G01X36337Y64743D01*
G01X20458Y63089D02*
G01X20458Y64289D01*
G01X18408Y62889D02*
G01X17408Y62889D01*
G01X18408Y64489D02*
G01X17408Y64489D01*
G01X19208Y62889D02*
G01X20208Y62889D01*
G01X19208Y64489D02*
G01X20208Y64489D01*
G01X17158Y63089D02*
G01X17158Y64289D01*
G01X17358Y62889D02*
G01X17408Y62889D01*
G01X17358Y64489D02*
G01X17408Y64489D01*
G01X20258Y62889D02*
G01X20208Y62889D01*
G01X20258Y64489D02*
G01X20208Y64489D01*
G01X26971Y70294D02*
G01X28171Y70294D01*
G01X26771Y72344D02*
G01X26771Y73344D01*
G01X28371Y72344D02*
G01X28371Y73344D01*
G01X26771Y71544D02*
G01X26771Y70544D01*
G01X28371Y71544D02*
G01X28371Y70544D01*
G01X26971Y73594D02*
G01X28171Y73594D01*
G01X26771Y73394D02*
G01X26771Y73344D01*
G01X28371Y73394D02*
G01X28371Y73344D01*
G01X26771Y70494D02*
G01X26771Y70544D01*
G01X28371Y70494D02*
G01X28371Y70544D01*
G01X17158Y66321D02*
G01X17158Y65121D01*
G01X19208Y66521D02*
G01X20208Y66521D01*
G01X19208Y64921D02*
G01X20208Y64921D01*
G01X18408Y66521D02*
G01X17408Y66521D01*
G01X18408Y64921D02*
G01X17408Y64921D01*
G01X20458Y66321D02*
G01X20458Y65121D01*
G01X20258Y66521D02*
G01X20208Y66521D01*
G01X20258Y64921D02*
G01X20208Y64921D01*
G01X17358Y66521D02*
G01X17408Y66521D01*
G01X17358Y64921D02*
G01X17408Y64921D01*
G01X21247Y50392D02*
G01X21247Y48792D01*
G01X19397Y48797D02*
G01X18147Y48797D01*
G01X19397Y50397D02*
G01X18147Y50397D01*
G01X19997Y48792D02*
G01X21247Y48792D01*
G01X19997Y50392D02*
G01X21247Y50392D01*
G01X18147Y50397D02*
G01X18147Y48797D01*
G54D28*
G01X42626Y62200D02*
G01X43626Y62200D01*
G01X43626Y65940D01*
G01X42586Y65940D01*
G01X41726Y65940D02*
G01X40706Y65940D01*
G01X40706Y62200D01*
G01X41746Y62200D01*
G01X25956Y53333D02*
G01X25956Y52333D01*
G01X29696Y52333D01*
G01X29696Y53373D01*
G01X29695Y54233D02*
G01X29695Y55253D01*
G01X25955Y55253D01*
G01X25955Y54213D01*
G54D10*
G01X24726Y76948D02*
G01X24726Y77532D01*
G01X40982Y76922D02*
G01X40982Y77507D01*
G01X24676Y89724D02*
G01X24676Y90308D01*
G01X41033Y89699D02*
G01X41033Y90283D01*
G01X41186Y90283D01*
G01X37731Y90283D01*
G01X20840Y85152D02*
G01X20840Y86422D01*
G01X22821Y86422D01*
G01X22821Y80936D01*
G01X25031Y80936D01*
G01X25031Y81698D01*
G01X25031Y85736D02*
G01X25031Y86422D01*
G01X24269Y86422D01*
G01X24269Y85685D01*
G01X22821Y85685D01*
G01X24142Y82773D02*
G01X24142Y84568D01*
G01X26352Y81698D02*
G01X26352Y82561D01*
G01X25823Y82561D01*
G01X23841Y82815D01*
G01X25920Y81698D02*
G01X25920Y82561D01*
G01X26352Y82561D02*
G01X26708Y82561D01*
G01X23787Y81698D02*
G01X26708Y81698D01*
G01X23866Y84568D02*
G01X25990Y84840D01*
G01X25946Y85685D02*
G01X25946Y84822D01*
G01X26377Y84822D01*
G01X26377Y85685D01*
G01X26377Y84822D02*
G01X26733Y84822D01*
G01X23812Y81774D02*
G01X23812Y85685D01*
G01X26733Y85685D01*
G01X22923Y81698D02*
G01X24371Y81698D01*
G01X24371Y80961D01*
G01X23456Y80986D02*
G01X23456Y81698D01*
G01X23355Y85711D02*
G01X23355Y86422D01*
G01X22821Y86422D02*
G01X24269Y86422D01*
G01X18910Y81088D02*
G01X18910Y86447D01*
G01X19316Y80910D02*
G01X19316Y86422D01*
G01X21526Y80961D02*
G01X21526Y86371D01*
G01X22136Y80936D02*
G01X22136Y86422D01*
G01X17946Y80909D02*
G01X22821Y80909D01*
G01X17894Y86447D02*
G01X20027Y86447D01*
G01X20027Y85177D01*
G01X20815Y85177D01*
G01X43649Y80732D02*
G01X43649Y81317D01*
G01X42938Y80829D02*
G01X42938Y81367D01*
G01X44081Y81367D01*
G01X41186Y80809D02*
G01X41186Y81952D01*
G01X40601Y80809D02*
G01X40601Y81952D01*
G01X40576Y85381D02*
G01X40576Y86524D01*
G01X41160Y85381D02*
G01X41160Y86524D01*
G01X21805Y87438D02*
G01X21805Y90587D01*
G01X22847Y91629D01*
G01X44005Y91629D01*
G01X44030Y91604D01*
G01X44030Y87413D01*
G01X47866Y87413D01*
G01X47866Y85965D01*
G01X17894Y85965D02*
G01X17894Y87413D01*
G01X21805Y87413D01*
G01X43980Y79843D02*
G01X47891Y79843D01*
G01X47891Y81291D01*
G01X17919Y81266D02*
G01X17919Y79843D01*
G01X21755Y79843D01*
G01X21755Y75652D01*
G01X21780Y75627D01*
G01X43980Y75627D01*
G01X43980Y79818D01*
G01X22390Y76821D02*
G01X23634Y76821D01*
G01X23050Y76186D02*
G01X23050Y77456D01*
G01X42100Y90334D02*
G01X43395Y90334D01*
G01X37909Y87844D02*
G01X42557Y87844D01*
G01X37807Y79386D02*
G01X42506Y79386D01*
G01X37630Y76948D02*
G01X41084Y76948D01*
G01X23253Y87819D02*
G01X27952Y87819D01*
G01X24676Y90257D02*
G01X28130Y90257D01*
G01X23329Y79412D02*
G01X28028Y79412D01*
G01X24752Y76973D02*
G01X28206Y76973D01*
G01X44081Y80783D02*
G01X44081Y86524D01*
G01X47891Y80707D02*
G01X47866Y80732D01*
G01X45859Y80732D01*
G01X45224Y80732D01*
G01X44843Y80732D01*
G01X36537Y80732D01*
G01X36487Y80783D01*
G01X36487Y86524D01*
G01X44818Y86524D01*
G01X45199Y86524D01*
G01X45199Y85330D01*
G01X45935Y85330D01*
G01X45935Y86524D01*
G01X47840Y86524D01*
G01X47866Y86549D01*
G01X46697Y80758D02*
G01X46697Y86524D01*
G01X47078Y80732D02*
G01X47078Y86524D01*
G01X44564Y80834D02*
G01X44564Y86447D01*
G01X42938Y86427D02*
G01X42938Y85889D01*
G01X44081Y85889D01*
G01X43649Y85939D02*
G01X43649Y86524D01*
G01X41998Y83323D02*
G01X38823Y82917D01*
G01X38620Y82917D01*
G01X38417Y82714D01*
G01X37655Y82714D01*
G01X37655Y82510D01*
G01X37655Y82002D01*
G01X44056Y82002D01*
G01X38823Y82028D02*
G01X38823Y82917D01*
G01X38468Y82002D02*
G01X38468Y82764D01*
G01X41998Y84060D02*
G01X38823Y84466D01*
G01X38620Y84466D01*
G01X38417Y84669D01*
G01X37655Y84669D01*
G01X37655Y84873D01*
G01X37655Y85381D01*
G01X44056Y85381D01*
G01X38823Y84466D02*
G01X38823Y85355D01*
G01X38468Y84619D02*
G01X38468Y85381D01*
G01X25067Y61243D02*
G01X24617Y61243D01*
G01X24617Y61693D01*
G01X30017Y61643D02*
G01X30017Y61193D01*
G01X29567Y61193D01*
G01X24617Y66243D02*
G01X24617Y66693D01*
G01X25067Y66693D01*
G01X30017Y66193D02*
G01X30017Y66643D01*
G01X29567Y66643D01*
G54D30*
G01X39538Y34481D02*
G01X39538Y32540D01*
G01X39538Y34481D02*
G01X38799Y32540D01*
G01X38060Y34481D02*
G01X38799Y32540D01*
G01X38060Y34481D02*
G01X38060Y32540D01*
G01X36340Y33833D02*
G01X36340Y32540D01*
G01X36340Y33556D02*
G01X36526Y33742D01*
G01X36711Y33833D01*
G01X36988Y33833D01*
G01X37173Y33742D01*
G01X37356Y33556D01*
G01X37450Y33279D01*
G01X37450Y33094D01*
G01X37356Y32817D01*
G01X37173Y32634D01*
G01X36988Y32540D01*
G01X36711Y32540D01*
G01X36526Y32634D01*
G01X36340Y32817D01*
G01X35731Y33833D02*
G01X35731Y32540D01*
G01X35731Y33465D02*
G01X35454Y33742D01*
G01X35271Y33833D01*
G01X34994Y33833D01*
G01X34809Y33742D01*
G01X34715Y33465D01*
G01X34715Y32540D01*
G01X34105Y33833D02*
G01X34105Y32911D01*
G01X34014Y32634D01*
G01X33828Y32540D01*
G01X33551Y32540D01*
G01X33368Y32634D01*
G01X33089Y32911D01*
G01X33089Y33833D02*
G01X33089Y32540D01*
G01X31743Y34481D02*
G01X31926Y34481D01*
G01X32111Y34387D01*
G01X32203Y34110D01*
G01X32203Y32540D01*
G01X32479Y33833D02*
G01X31834Y33833D01*
G01X30023Y33833D02*
G01X30023Y32540D01*
G01X30023Y33556D02*
G01X30209Y33742D01*
G01X30394Y33833D01*
G01X30671Y33833D01*
G01X30854Y33742D01*
G01X31039Y33556D01*
G01X31133Y33279D01*
G01X31133Y33094D01*
G01X31039Y32817D01*
G01X30854Y32634D01*
G01X30671Y32540D01*
G01X30394Y32540D01*
G01X30209Y32634D01*
G01X30023Y32817D01*
G01X28306Y33556D02*
G01X28492Y33742D01*
G01X28674Y33833D01*
G01X28951Y33833D01*
G01X29137Y33742D01*
G01X29322Y33556D01*
G01X29414Y33279D01*
G01X29414Y33094D01*
G01X29322Y32817D01*
G01X29137Y32634D01*
G01X28951Y32540D01*
G01X28674Y32540D01*
G01X28492Y32634D01*
G01X28306Y32817D01*
G01X27420Y34481D02*
G01X27420Y32911D01*
G01X27326Y32634D01*
G01X27143Y32540D01*
G01X26957Y32540D01*
G01X27697Y33833D02*
G01X27049Y33833D01*
G01X26348Y33833D02*
G01X26348Y32911D01*
G01X26256Y32634D01*
G01X26071Y32540D01*
G01X25794Y32540D01*
G01X25609Y32634D01*
G01X25332Y32911D01*
G01X25332Y33833D02*
G01X25332Y32540D01*
G01X24722Y33833D02*
G01X24722Y32540D01*
G01X24722Y33279D02*
G01X24631Y33556D01*
G01X24445Y33742D01*
G01X24260Y33833D01*
G01X23983Y33833D01*
G01X23373Y33279D02*
G01X22266Y33279D01*
G01X22266Y33465D01*
G01X22357Y33650D01*
G01X22449Y33742D01*
G01X22634Y33833D01*
G01X22911Y33833D01*
G01X23097Y33742D01*
G01X23282Y33556D01*
G01X23373Y33279D01*
G01X23373Y33094D01*
G01X23282Y32817D01*
G01X23097Y32634D01*
G01X22911Y32540D01*
G01X22634Y32540D01*
G01X22449Y32634D01*
G01X22266Y32817D01*
G01X20546Y34481D02*
G01X20546Y32540D01*
G01X20546Y33556D02*
G01X20732Y33742D01*
G01X20917Y33833D01*
G01X21194Y33833D01*
G01X21380Y33742D01*
G01X21562Y33556D01*
G01X21656Y33279D01*
G01X21656Y33094D01*
G01X21562Y32817D01*
G01X21380Y32634D01*
G01X21194Y32540D01*
G01X20917Y32540D01*
G01X20732Y32634D01*
G01X20546Y32817D01*
G01X18514Y34481D02*
G01X18514Y32540D01*
G01X18514Y33556D02*
G01X18332Y33742D01*
G01X18146Y33833D01*
G01X17869Y33833D01*
G01X17684Y33742D01*
G01X17498Y33556D01*
G01X17407Y33279D01*
G01X17407Y33094D01*
G01X17498Y32817D01*
G01X17684Y32634D01*
G01X17869Y32540D01*
G01X18146Y32540D01*
G01X18332Y32634D01*
G01X18514Y32817D01*
G01X16706Y33833D02*
G01X16150Y32540D01*
G01X15596Y33833D02*
G01X16150Y32540D01*
G01X16335Y32172D01*
G01X16521Y31987D01*
G01X16706Y31895D01*
G01X16797Y31895D01*
G54D31*
G01X35880Y66033D02*
G01X35933Y66138D01*
G01X36037Y66242D01*
G01X36139Y66293D01*
G01X36347Y66293D01*
G01X36451Y66242D01*
G01X36555Y66138D01*
G01X36609Y66033D01*
G01X36659Y65876D01*
G01X36659Y65617D01*
G01X36609Y65462D01*
G01X36555Y65358D01*
G01X36451Y65254D01*
G01X36347Y65203D01*
G01X36139Y65203D01*
G01X36037Y65254D01*
G01X35933Y65358D01*
G01X35880Y65462D01*
G01X35433Y66293D02*
G01X34861Y66293D01*
G01X35173Y65876D01*
G01X35018Y65876D01*
G01X34914Y65825D01*
G01X34861Y65774D01*
G01X34810Y65617D01*
G01X34810Y65513D01*
G01X34861Y65358D01*
G01X34965Y65254D01*
G01X35123Y65203D01*
G01X35278Y65203D01*
G01X35433Y65254D01*
G01X35486Y65304D01*
G01X35537Y65409D01*
G01X15950Y63875D02*
G01X16003Y63979D01*
G01X16107Y64083D01*
G01X16209Y64134D01*
G01X16417Y64134D01*
G01X16521Y64083D01*
G01X16625Y63979D01*
G01X16679Y63875D01*
G01X16730Y63718D01*
G01X16730Y63459D01*
G01X16679Y63304D01*
G01X16625Y63200D01*
G01X16521Y63095D01*
G01X16417Y63045D01*
G01X16209Y63045D01*
G01X16107Y63095D01*
G01X16003Y63200D01*
G01X15950Y63304D01*
G01X15556Y63875D02*
G01X15556Y63926D01*
G01X15503Y64030D01*
G01X15452Y64083D01*
G01X15348Y64134D01*
G01X15140Y64134D01*
G01X15035Y64083D01*
G01X14985Y64030D01*
G01X14931Y63926D01*
G01X14931Y63822D01*
G01X14985Y63718D01*
G01X15089Y63563D01*
G01X15607Y63045D01*
G01X14880Y63045D01*
G01X27529Y74980D02*
G01X27582Y75084D01*
G01X27687Y75188D01*
G01X27788Y75239D01*
G01X27996Y75239D01*
G01X28101Y75188D01*
G01X28205Y75084D01*
G01X28258Y74980D01*
G01X28309Y74822D01*
G01X28309Y74563D01*
G01X28258Y74408D01*
G01X28205Y74304D01*
G01X28101Y74200D01*
G01X27996Y74149D01*
G01X27788Y74149D01*
G01X27687Y74200D01*
G01X27582Y74304D01*
G01X27529Y74408D01*
G01X27186Y75030D02*
G01X27082Y75084D01*
G01X26927Y75239D01*
G01X26927Y74149D01*
G01X16027Y66001D02*
G01X16080Y66105D01*
G01X16184Y66209D01*
G01X16286Y66260D01*
G01X16494Y66260D01*
G01X16598Y66209D01*
G01X16702Y66105D01*
G01X16755Y66001D01*
G01X16806Y65843D01*
G01X16806Y65584D01*
G01X16755Y65429D01*
G01X16702Y65325D01*
G01X16598Y65221D01*
G01X16494Y65170D01*
G01X16286Y65170D01*
G01X16184Y65221D01*
G01X16080Y65325D01*
G01X16027Y65429D01*
G01X15165Y66260D02*
G01X15684Y65533D01*
G01X14904Y65533D01*
G01X15165Y66260D02*
G01X15165Y65170D01*
G01X19746Y51888D02*
G01X19746Y50799D01*
G01X19746Y51888D02*
G01X19279Y51888D01*
G01X19124Y51837D01*
G01X19070Y51784D01*
G01X19020Y51680D01*
G01X19020Y51576D01*
G01X19070Y51472D01*
G01X19124Y51421D01*
G01X19279Y51370D01*
G01X19746Y51370D01*
G01X19383Y51370D02*
G01X19020Y50799D01*
G01X18677Y51680D02*
G01X18573Y51733D01*
G01X18415Y51888D01*
G01X18415Y50799D01*
G01X43296Y67480D02*
G01X43296Y66390D01*
G01X43296Y67480D02*
G01X42829Y67480D01*
G01X42674Y67429D01*
G01X42621Y67375D01*
G01X42570Y67271D01*
G01X42570Y67167D01*
G01X42621Y67063D01*
G01X42674Y67012D01*
G01X42829Y66961D01*
G01X43296Y66961D01*
G01X42933Y66961D02*
G01X42570Y66390D01*
G01X42227Y67480D02*
G01X42227Y66390D01*
G01X42227Y67480D02*
G01X41498Y66390D01*
G01X41498Y67480D02*
G01X41498Y66390D01*
G01X41155Y67271D02*
G01X41051Y67325D01*
G01X40896Y67480D01*
G01X40896Y66390D01*
G01X28079Y56587D02*
G01X28079Y55497D01*
G01X28079Y56587D02*
G01X27612Y56587D01*
G01X27457Y56536D01*
G01X27404Y56483D01*
G01X27353Y56379D01*
G01X27353Y56275D01*
G01X27404Y56170D01*
G01X27457Y56120D01*
G01X27612Y56069D01*
G01X28079Y56069D01*
G01X27716Y56069D02*
G01X27353Y55497D01*
G01X27010Y56587D02*
G01X27010Y55497D01*
G01X27010Y56587D02*
G01X26281Y55497D01*
G01X26281Y56587D02*
G01X26281Y55497D01*
G01X25887Y56328D02*
G01X25887Y56379D01*
G01X25834Y56483D01*
G01X25783Y56536D01*
G01X25679Y56587D01*
G01X25471Y56587D01*
G01X25366Y56536D01*
G01X25316Y56483D01*
G01X25262Y56379D01*
G01X25262Y56275D01*
G01X25316Y56170D01*
G01X25420Y56016D01*
G01X25938Y55497D01*
G01X25212Y55497D01*
G54D10*
G75*
G01X33288Y63343D02*
G03X33488Y63143I200J0D01*
G01*
G75*
G01X33288Y64544D02*
G02X33488Y64744I200J0D01*
G01*
G75*
G01X36588Y63343D02*
G02X36388Y63143I-200J0D01*
G01*
G75*
G01X36588Y64544D02*
G03X36388Y64744I-200J0D01*
G01*
G75*
G01X17159Y63089D02*
G03X17359Y62889I200J0D01*
G01*
G75*
G01X17159Y64290D02*
G02X17359Y64490I200J0D01*
G01*
G75*
G01X20459Y63089D02*
G02X20259Y62889I-200J0D01*
G01*
G75*
G01X20459Y64290D02*
G03X20259Y64490I-200J0D01*
G01*
G75*
G01X26972Y73595D02*
G03X26772Y73395I0J-200D01*
G01*
G75*
G01X28172Y73595D02*
G02X28372Y73394I0J-201D01*
G01*
G75*
G01X26972Y70295D02*
G02X26772Y70494I0J199D01*
G01*
G75*
G01X28172Y70295D02*
G03X28372Y70495I0J200D01*
G01*
G75*
G01X20459Y66322D02*
G03X20259Y66522I-200J0D01*
G01*
G75*
G01X20459Y65122D02*
G02X20259Y64921I-200J0D01*
G01*
G75*
G01X17159Y66322D02*
G02X17359Y66522I200J0D01*
G01*
G75*
G01X17159Y65122D02*
G03X17359Y64921I200J0D01*
G01*
G75*
G01X23609Y79387D02*
G02X24727Y77533I-24183J-15840D01*
G01*
G75*
G01X40983Y77507D02*
G02X42101Y79361I25301J-13986D01*
G01*
G75*
G01X24676Y89725D02*
G02X23559Y87870I-25301J13985D01*
G01*
G75*
G01X42151Y87845D02*
G02X41034Y89699I24183J15840D01*
G01*
G75*
G01X26708Y82562D02*
G02X26708Y81698I-84J-432D01*
G01*
G75*
G01X26734Y85686D02*
G02X26734Y84822I-85J-432D01*
G01*
G75*
G01X22822Y81698D02*
G02X22873Y81647I0J-51D01*
G01*
G75*
G01X18910Y81089D02*
G02X18860Y81038I-50J0D01*
G01*
G75*
G01X21577Y80911D02*
G02X21527Y80962I0J51D01*
G01*
G75*
G01X22162Y80911D02*
G02X22136Y80936I0J25D01*
G01*
G75*
G01X17948Y80908D02*
G02X17920Y80936I-1J27D01*
G01*
G75*
G01X22845Y80908D02*
G02X22771Y80984I1J75D01*
G01*
G75*
G01X25692Y75678D02*
G02X22845Y80908I8216J7863D01*
G01*
G75*
G01X22720Y86423D02*
G02X22771Y86372I0J-51D01*
G01*
G75*
G01X20815Y85178D02*
G02X20841Y85153I0J-25D01*
G01*
G75*
G01X42766Y91000D02*
G02X42753Y91000I-6J-665D01*
G01*
G75*
G01X42766Y77487D02*
G02X42753Y77487I-6J-665D01*
G01*
G75*
G01X23056Y77487D02*
G02X23043Y77487I-7J-665D01*
G01*
G75*
G01X23056Y91127D02*
G02X23043Y91127I-7J-665D01*
G01*
G75*
G01X39942Y91630D02*
G02X43023Y86511I-7861J-8219D01*
G01*
G75*
G01X22771Y86372D02*
G02X25618Y91602I11063J-2633D01*
G01*
G75*
G01X37910Y87845D02*
G02X37732Y90283I57J1230D01*
G01*
G75*
G01X37656Y76948D02*
G02X37833Y79387I235J1209D01*
G01*
G75*
G01X28131Y90258D02*
G02X27953Y87820I-236J-1209D01*
G01*
G75*
G01X28029Y79412D02*
G02X28207Y76974I-58J-1230D01*
G01*
G75*
G01X42939Y80682D02*
G02X39952Y75671I-10935J3122D01*
G01*
G75*
G01X41999Y84060D02*
G02X41999Y83324I-368J-368D01*
G01*
G54D29*
G75*
G01X30394Y66519D02*
G02X30394Y66517I125J-1D01*
G01*
G54D10*
G75*
G01X21587Y58610D02*
G03X21587Y58610I-1000J0D01*
G01*
M00*
M02*
