;Layer: Drill PTH
;EasyEDA v6.4.7, 2020-11-14T12:43:57+01:00
;ca67bbdea9ee427383f7cb57cdafcb35,58a91c2aa3f04fa292fc60144c522205,10
;Gerber Generator version 0.2
M48
METRIC,LZ,000.000
;Holesize 1 = 0.310 METRIC
T01C0.310
%
G05
G90
T01
X+040233Y+034860
X+031216Y+018223
X+027152Y+050227
X+012928Y+029907
X+011531Y+090359
X+031724Y+071563
X+047091Y+062292
X+039090Y+087565
X+031407Y+063943
X+026837Y+069980
X+029514Y+018223
X+011226Y+029907
X+038531Y+034860
X+025450Y+050227
X+030022Y+071563
X+045389Y+062292
X+009829Y+090359
X+037388Y+087565
X+021856Y+052079
X+025974Y+067395
M30
