G04 Layer: TopSolderMaskLayer*
G04 EasyEDA v6.4.7, 2020-11-14T12:43:57+01:00*
G04 ca67bbdea9ee427383f7cb57cdafcb35,58a91c2aa3f04fa292fc60144c522205,10*
G04 Gerber Generator version 0.2*
G04 Scale: 100 percent, Rotated: No, Reflected: No *
G04 Dimensions in millimeters *
G04 leading zeros omitted , absolute positions ,3 integer and 3 decimal *
%FSLAX33Y33*%
%MOMM*%
G90*
D02*


%LPD*%
G36*
G01X28963Y17621D02*
G01X28963Y18825D01*
G01X30065Y18825D01*
G01X30065Y17621D01*
G01X28963Y17621D01*
G37*
G36*
G01X30662Y17621D02*
G01X30662Y18825D01*
G01X31767Y18825D01*
G01X31767Y17621D01*
G01X30662Y17621D01*
G37*
G36*
G01X9278Y89757D02*
G01X9278Y90961D01*
G01X10380Y90961D01*
G01X10380Y89757D01*
G01X9278Y89757D01*
G37*
G36*
G01X10977Y89757D02*
G01X10977Y90961D01*
G01X12082Y90961D01*
G01X12082Y89757D01*
G01X10977Y89757D01*
G37*
G36*
G01X29471Y70961D02*
G01X29471Y72165D01*
G01X30573Y72165D01*
G01X30573Y70961D01*
G01X29471Y70961D01*
G37*
G36*
G01X31170Y70961D02*
G01X31170Y72165D01*
G01X32275Y72165D01*
G01X32275Y70961D01*
G01X31170Y70961D01*
G37*
G36*
G01X36837Y86963D02*
G01X36837Y88167D01*
G01X37939Y88167D01*
G01X37939Y86963D01*
G01X36837Y86963D01*
G37*
G36*
G01X38536Y86963D02*
G01X38536Y88167D01*
G01X39641Y88167D01*
G01X39641Y86963D01*
G01X38536Y86963D01*
G37*
G36*
G01X44838Y61690D02*
G01X44838Y62894D01*
G01X45940Y62894D01*
G01X45940Y61690D01*
G01X44838Y61690D01*
G37*
G36*
G01X46537Y61690D02*
G01X46537Y62894D01*
G01X47642Y62894D01*
G01X47642Y61690D01*
G01X46537Y61690D01*
G37*
G36*
G01X37980Y34258D02*
G01X37980Y35462D01*
G01X39082Y35462D01*
G01X39082Y34258D01*
G01X37980Y34258D01*
G37*
G36*
G01X39679Y34258D02*
G01X39679Y35462D01*
G01X40784Y35462D01*
G01X40784Y34258D01*
G01X39679Y34258D01*
G37*
G36*
G01X10675Y29305D02*
G01X10675Y30509D01*
G01X11777Y30509D01*
G01X11777Y29305D01*
G01X10675Y29305D01*
G37*
G36*
G01X12374Y29305D02*
G01X12374Y30509D01*
G01X13479Y30509D01*
G01X13479Y29305D01*
G01X12374Y29305D01*
G37*
G36*
G01X24899Y49625D02*
G01X24899Y50829D01*
G01X26001Y50829D01*
G01X26001Y49625D01*
G01X24899Y49625D01*
G37*
G36*
G01X26598Y49625D02*
G01X26598Y50829D01*
G01X27703Y50829D01*
G01X27703Y49625D01*
G01X26598Y49625D01*
G37*
M00*
M02*
