G04 Layer: TopLayer*
G04 EasyEDA v6.4.7, 2020-11-14T12:43:57+01:00*
G04 ca67bbdea9ee427383f7cb57cdafcb35,58a91c2aa3f04fa292fc60144c522205,10*
G04 Gerber Generator version 0.2*
G04 Scale: 100 percent, Rotated: No, Reflected: No *
G04 Dimensions in millimeters *
G04 leading zeros omitted , absolute positions ,3 integer and 3 decimal *
%FSLAX33Y33*%
%MOMM*%
G90*
D02*

%ADD11C,0.259994*%
%ADD12C,0.610006*%
%ADD13R,0.899922X0.999998*%

%LPD*%
G36*
G01X54293Y97399D02*
G01X54289Y97399D01*
G01X53013Y97342D01*
G01X52992Y97341D01*
G01X52991Y97341D01*
G01X51658Y97267D01*
G01X51656Y97267D01*
G01X50240Y97165D01*
G01X50239Y97165D01*
G01X50218Y97163D01*
G01X50214Y97163D01*
G01X49513Y97114D01*
G01X49509Y97114D01*
G01X48564Y97063D01*
G01X48562Y97063D01*
G01X47561Y97018D01*
G01X47559Y97018D01*
G01X46499Y96981D01*
G01X46497Y96981D01*
G01X46460Y96980D01*
G01X46459Y96980D01*
G01X45440Y96942D01*
G01X45438Y96942D01*
G01X44234Y96882D01*
G01X44232Y96882D01*
G01X43161Y96816D01*
G01X43160Y96816D01*
G01X42223Y96745D01*
G01X42221Y96745D01*
G01X42191Y96742D01*
G01X38882Y96455D01*
G01X38859Y96453D01*
G01X38857Y96453D01*
G01X38854Y96452D01*
G01X38855Y96452D01*
G01X38124Y96400D01*
G01X38120Y96400D01*
G01X37258Y96351D01*
G01X37256Y96351D01*
G01X36349Y96309D01*
G01X36346Y96309D01*
G01X35565Y96283D01*
G01X35564Y96283D01*
G01X35533Y96282D01*
G01X34660Y96250D01*
G01X34658Y96250D01*
G01X33795Y96207D01*
G01X33794Y96207D01*
G01X33041Y96160D01*
G01X33039Y96160D01*
G01X32451Y96112D01*
G01X32449Y96112D01*
G01X32403Y96107D01*
G01X32401Y96107D01*
G01X31687Y96044D01*
G01X31686Y96043D01*
G01X31685Y96043D01*
G01X30772Y95971D01*
G01X30771Y95971D01*
G01X30770Y95970D01*
G01X28454Y95804D01*
G01X28452Y95804D01*
G01X25861Y95639D01*
G01X25860Y95639D01*
G01X25859Y95638D01*
G01X23747Y95522D01*
G01X23745Y95522D01*
G01X23713Y95521D01*
G01X23712Y95520D01*
G01X21880Y95420D01*
G01X21879Y95420D01*
G01X20100Y95304D01*
G01X20099Y95303D01*
G01X20017Y95297D01*
G01X20015Y95297D01*
G01X18096Y95163D01*
G01X18093Y95163D01*
G01X16367Y95059D01*
G01X16365Y95059D01*
G01X15745Y95028D01*
G01X15742Y95028D01*
G01X15229Y95009D01*
G01X15222Y95009D01*
G01X14898Y95006D01*
G01X14883Y95006D01*
G01X14813Y95010D01*
G01X14778Y95014D01*
G01X14767Y95016D01*
G01X14751Y95018D01*
G01X14585Y95022D01*
G01X14577Y95022D01*
G01X14115Y94999D01*
G01X14113Y94999D01*
G01X13408Y94949D01*
G01X13407Y94949D01*
G01X12663Y94888D01*
G01X12662Y94888D01*
G01X12629Y94885D01*
G01X12628Y94885D01*
G01X10779Y94728D01*
G01X10778Y94728D01*
G01X9149Y94597D01*
G01X9148Y94597D01*
G01X9085Y94593D01*
G01X9084Y94593D01*
G01X8304Y94530D01*
G01X8303Y94530D01*
G01X7783Y94482D01*
G01X7781Y94482D01*
G01X7408Y94439D01*
G01X7404Y94439D01*
G01X7092Y94391D01*
G01X7086Y94389D01*
G01X6885Y94345D01*
G01X6870Y94341D01*
G01X6630Y94248D01*
G01X6617Y94242D01*
G01X6349Y94094D01*
G01X6334Y94084D01*
G01X6151Y93938D01*
G01X6146Y93933D01*
G01X5982Y93782D01*
G01X5976Y93776D01*
G01X5874Y93665D01*
G01X5871Y93660D01*
G01X5772Y93540D01*
G01X5769Y93535D01*
G01X5661Y93386D01*
G01X5658Y93382D01*
G01X5577Y93254D01*
G01X5573Y93249D01*
G01X5489Y93097D01*
G01X5485Y93091D01*
G01X5414Y92942D01*
G01X5412Y92936D01*
G01X5363Y92814D01*
G01X5361Y92807D01*
G01X5332Y92717D01*
G01X5328Y92694D01*
G01X5309Y92461D01*
G01X5308Y92453D01*
G01X5309Y92448D01*
G01X5321Y92193D01*
G01X5325Y92170D01*
G01X5336Y92132D01*
G01X5341Y92113D01*
G01X5366Y91989D01*
G01X5369Y91973D01*
G01X5411Y91680D01*
G01X5413Y91669D01*
G01X5453Y91272D01*
G01X5453Y91265D01*
G01X5494Y90719D01*
G01X5494Y90714D01*
G01X5529Y90102D01*
G01X5530Y90101D01*
G01X5530Y90099D01*
G01X5562Y89383D01*
G01X5563Y89382D01*
G01X5563Y89380D01*
G01X5624Y87555D01*
G01X5624Y87554D01*
G01X5625Y87517D01*
G01X5656Y86573D01*
G01X5656Y86572D01*
G01X5701Y85531D01*
G01X5701Y85530D01*
G01X5748Y84631D01*
G01X5748Y84629D01*
G01X5793Y83971D01*
G01X5793Y83969D01*
G01X5801Y83864D01*
G01X5801Y83863D01*
G01X6007Y81424D01*
G01X6007Y81422D01*
G01X6162Y79809D01*
G01X6162Y79807D01*
G01X6227Y79222D01*
G01X6228Y79220D01*
G01X6285Y78782D01*
G01X6286Y78776D01*
G01X6352Y78410D01*
G01X6354Y78402D01*
G01X6366Y78357D01*
G01X6372Y78341D01*
G01X6380Y78327D01*
G01X6580Y78030D01*
G01X6589Y78019D01*
G01X6754Y77835D01*
G01X6760Y77829D01*
G01X6948Y77651D01*
G01X6954Y77645D01*
G01X7139Y77498D01*
G01X7152Y77489D01*
G01X7506Y77286D01*
G01X7522Y77279D01*
G01X7698Y77213D01*
G01X7706Y77211D01*
G01X7797Y77185D01*
G01X7802Y77184D01*
G01X7918Y77158D01*
G01X7926Y77157D01*
G01X8152Y77125D01*
G01X8161Y77124D01*
G01X8435Y77108D01*
G01X8441Y77107D01*
G01X8442Y77107D01*
G01X8754Y77110D01*
G01X8756Y77110D01*
G01X9020Y77118D01*
G01X9027Y77118D01*
G01X9056Y77116D01*
G01X9135Y77107D01*
G01X9177Y77099D01*
G01X9237Y77082D01*
G01X9263Y77073D01*
G01X9288Y77061D01*
G01X9354Y77025D01*
G01X9378Y77010D01*
G01X9400Y76993D01*
G01X9452Y76948D01*
G01X9470Y76932D01*
G01X9485Y76914D01*
G01X9546Y76837D01*
G01X9565Y76809D01*
G01X9616Y76724D01*
G01X9627Y76704D01*
G01X9690Y76573D01*
G01X9696Y76559D01*
G01X9752Y76423D01*
G01X9756Y76410D01*
G01X9895Y76012D01*
G01X9898Y76004D01*
G01X10070Y75450D01*
G01X10071Y75448D01*
G01X10070Y75448D01*
G01X10071Y75447D01*
G01X10436Y74223D01*
G01X10464Y74130D01*
G01X10464Y74129D01*
G01X11064Y72111D01*
G01X11064Y72109D01*
G01X11370Y71057D01*
G01X11370Y71056D01*
G01X11371Y71053D01*
G01X11597Y70237D01*
G01X11598Y70236D01*
G01X11598Y70234D01*
G01X11896Y69112D01*
G01X11899Y69102D01*
G01X11899Y69101D01*
G01X12338Y67492D01*
G01X12339Y67491D01*
G01X12343Y67477D01*
G01X12343Y67475D01*
G01X12344Y67473D01*
G01X12343Y67474D01*
G01X12584Y66576D01*
G01X12584Y66574D01*
G01X12585Y66572D01*
G01X12791Y65745D01*
G01X12791Y65742D01*
G01X12794Y65730D01*
G01X12794Y65729D01*
G01X12963Y65042D01*
G01X12964Y65038D01*
G01X12963Y65040D01*
G01X13100Y64536D01*
G01X13100Y64534D01*
G01X13103Y64525D01*
G01X13157Y64325D01*
G01X13159Y64319D01*
G01X13231Y64017D01*
G01X13233Y64010D01*
G01X13372Y63359D01*
G01X13372Y63356D01*
G01X13373Y63354D01*
G01X13378Y63329D01*
G01X13378Y63327D01*
G01X13534Y62572D01*
G01X13534Y62570D01*
G01X13711Y61779D01*
G01X13711Y61777D01*
G01X13909Y60947D01*
G01X13909Y60945D01*
G01X14076Y60298D01*
G01X14076Y60297D01*
G01X14084Y60270D01*
G01X14084Y60268D01*
G01X14085Y60265D01*
G01X14276Y59525D01*
G01X14277Y59519D01*
G01X14439Y58826D01*
G01X14440Y58819D01*
G01X14572Y58176D01*
G01X14574Y58169D01*
G01X14624Y57886D01*
G01X14625Y57879D01*
G01X14658Y57659D01*
G01X14658Y57656D01*
G01X14659Y57650D01*
G01X14659Y57648D01*
G01X14753Y57022D01*
G01X14753Y57020D01*
G01X14889Y56216D01*
G01X14889Y56215D01*
G01X14915Y56066D01*
G01X14915Y56065D01*
G01X15241Y54208D01*
G01X15241Y54206D01*
G01X15452Y52935D01*
G01X15452Y52932D01*
G01X15453Y52930D01*
G01X15610Y51872D01*
G01X15610Y51870D01*
G01X15611Y51867D01*
G01X15672Y51394D01*
G01X15672Y51392D01*
G01X15673Y51389D01*
G01X15672Y51390D01*
G01X15724Y50941D01*
G01X15724Y50934D01*
G01X15795Y50140D01*
G01X15795Y50133D01*
G01X15823Y49698D01*
G01X15823Y49694D01*
G01X15845Y49246D01*
G01X15845Y49241D01*
G01X15874Y48264D01*
G01X15874Y48260D01*
G01X15893Y46897D01*
G01X15893Y46895D01*
G01X15894Y46839D01*
G01X15894Y46130D01*
G01X15880Y45487D01*
G01X15880Y45480D01*
G01X15849Y44886D01*
G01X15849Y44877D01*
G01X15804Y44366D01*
G01X15803Y44355D01*
G01X15742Y43873D01*
G01X15740Y43861D01*
G01X15659Y43400D01*
G01X15656Y43387D01*
G01X15554Y42943D01*
G01X15551Y42929D01*
G01X15427Y42494D01*
G01X15424Y42487D01*
G01X15415Y42459D01*
G01X15414Y42453D01*
G01X15297Y42111D01*
G01X15293Y42101D01*
G01X15160Y41758D01*
G01X15157Y41749D01*
G01X15020Y41430D01*
G01X15016Y41422D01*
G01X14835Y41036D01*
G01X14832Y41029D01*
G01X14629Y40631D01*
G01X14626Y40625D01*
G01X14418Y40242D01*
G01X14417Y40239D01*
G01X14415Y40237D01*
G01X14167Y39802D01*
G01X14165Y39798D01*
G01X13892Y39339D01*
G01X13892Y39338D01*
G01X13891Y39338D01*
G01X13891Y39337D01*
G01X13867Y39298D01*
G01X13867Y39296D01*
G01X13866Y39295D01*
G01X13866Y39296D01*
G01X13556Y38795D01*
G01X13554Y38791D01*
G01X13250Y38322D01*
G01X13249Y38320D01*
G01X13247Y38317D01*
G01X13247Y38318D01*
G01X12906Y37813D01*
G01X12904Y37811D01*
G01X12903Y37809D01*
G01X12503Y37239D01*
G01X12501Y37237D01*
G01X12021Y36573D01*
G01X12019Y36571D01*
G01X11385Y35712D01*
G01X11384Y35711D01*
G01X11384Y35710D01*
G01X9737Y33516D01*
G01X9637Y33383D01*
G01X9636Y33383D01*
G01X8446Y31799D01*
G01X8445Y31798D01*
G01X7446Y30453D01*
G01X7445Y30452D01*
G01X6725Y29466D01*
G01X6724Y29466D01*
G01X6046Y28517D01*
G01X6046Y28515D01*
G01X5456Y27664D01*
G01X5455Y27662D01*
G01X4928Y26873D01*
G01X4927Y26871D01*
G01X4438Y26108D01*
G01X4437Y26106D01*
G01X3880Y25199D01*
G01X3880Y25198D01*
G01X3841Y25134D01*
G01X3840Y25132D01*
G01X3333Y24264D01*
G01X3332Y24262D01*
G01X2903Y23483D01*
G01X2902Y23481D01*
G01X2508Y22723D01*
G01X2507Y22721D01*
G01X2295Y22290D01*
G01X2294Y22288D01*
G01X2295Y22289D01*
G01X2123Y21926D01*
G01X2123Y21925D01*
G01X1961Y21569D01*
G01X1960Y21567D01*
G01X1784Y21162D01*
G01X1783Y21159D01*
G01X1511Y20482D01*
G01X1510Y20479D01*
G01X1390Y20154D01*
G01X1389Y20152D01*
G01X1278Y19834D01*
G01X1278Y19832D01*
G01X1178Y19522D01*
G01X1177Y19520D01*
G01X1082Y19203D01*
G01X899Y18584D01*
G01X899Y18581D01*
G01X898Y18579D01*
G01X717Y18000D01*
G01X716Y17996D01*
G01X652Y17758D01*
G01X651Y17752D01*
G01X585Y17422D01*
G01X526Y17030D01*
G01X525Y17025D01*
G01X486Y16644D01*
G01X486Y16643D01*
G01X443Y16233D01*
G01X442Y16227D01*
G01X344Y15474D01*
G01X343Y15472D01*
G01X296Y15055D01*
G01X296Y15051D01*
G01X264Y14630D01*
G01X264Y14624D01*
G01X256Y14273D01*
G01X256Y14268D01*
G01X261Y14073D01*
G01X261Y14069D01*
G01X272Y13869D01*
G01X273Y13865D01*
G01X292Y13661D01*
G01X293Y13657D01*
G01X315Y13493D01*
G01X315Y13490D01*
G01X351Y13282D01*
G01X352Y13276D01*
G01X446Y12878D01*
G01X447Y12873D01*
G01X501Y12691D01*
G01X505Y12676D01*
G01X526Y12587D01*
G01X526Y12586D01*
G01X678Y11973D01*
G01X679Y11970D01*
G01X817Y11476D01*
G01X818Y11473D01*
G01X965Y11002D01*
G01X967Y10998D01*
G01X1125Y10549D01*
G01X1127Y10545D01*
G01X1298Y10113D01*
G01X1299Y10109D01*
G01X1485Y9691D01*
G01X1486Y9687D01*
G01X1687Y9281D01*
G01X1689Y9278D01*
G01X1908Y8880D01*
G01X1910Y8877D01*
G01X2147Y8485D01*
G01X2150Y8481D01*
G01X2408Y8092D01*
G01X2410Y8089D01*
G01X2691Y7700D01*
G01X2694Y7697D01*
G01X3054Y7238D01*
G01X3056Y7235D01*
G01X3392Y6836D01*
G01X3395Y6833D01*
G01X3759Y6425D01*
G01X3761Y6423D01*
G01X4156Y6003D01*
G01X4158Y6001D01*
G01X4660Y5491D01*
G01X4685Y5466D01*
G01X4685Y5467D01*
G01X5037Y5124D01*
G01X5039Y5123D01*
G01X5038Y5123D01*
G01X5381Y4801D01*
G01X5382Y4800D01*
G01X5734Y4479D01*
G01X5735Y4478D01*
G01X6114Y4142D01*
G01X6115Y4141D01*
G01X6479Y3828D01*
G01X6480Y3827D01*
G01X6792Y3568D01*
G01X6793Y3567D01*
G01X7070Y3348D01*
G01X7073Y3345D01*
G01X7073Y3346D01*
G01X7335Y3152D01*
G01X7339Y3149D01*
G01X7780Y2856D01*
G01X7782Y2855D01*
G01X8269Y2554D01*
G01X8271Y2553D01*
G01X8905Y2181D01*
G01X8907Y2180D01*
G01X9554Y1818D01*
G01X9556Y1817D01*
G01X10207Y1472D01*
G01X10211Y1470D01*
G01X10210Y1471D01*
G01X10683Y1237D01*
G01X10687Y1235D01*
G01X10864Y1155D01*
G01X10873Y1151D01*
G01X11205Y1039D01*
G01X11220Y1035D01*
G01X11287Y1023D01*
G01X11317Y1016D01*
G01X11484Y965D01*
G01X11498Y960D01*
G01X11697Y887D01*
G01X11708Y883D01*
G01X11911Y798D01*
G01X11918Y795D01*
G01X12209Y697D01*
G01X12217Y695D01*
G01X12636Y592D01*
G01X12640Y591D01*
G01X13139Y494D01*
G01X13143Y493D01*
G01X13641Y418D01*
G01X13645Y417D01*
G01X13643Y417D01*
G01X13687Y412D01*
G01X13688Y411D01*
G01X14314Y336D01*
G01X14316Y336D01*
G01X14732Y295D01*
G01X14736Y294D01*
G01X15138Y267D01*
G01X15143Y267D01*
G01X15516Y256D01*
G01X15520Y256D01*
G01X15889Y263D01*
G01X15894Y263D01*
G01X16284Y287D01*
G01X16288Y288D01*
G01X16724Y329D01*
G01X16728Y330D01*
G01X16726Y329D01*
G01X17323Y400D01*
G01X17328Y401D01*
G01X17326Y400D01*
G01X17804Y470D01*
G01X17807Y471D01*
G01X18212Y545D01*
G01X18215Y545D01*
G01X18618Y633D01*
G01X18621Y634D01*
G01X19091Y754D01*
G01X19094Y755D01*
G01X19494Y872D01*
G01X19498Y874D01*
G01X19497Y873D01*
G01X19897Y1005D01*
G01X19901Y1007D01*
G01X19900Y1006D01*
G01X20299Y1153D01*
G01X20304Y1154D01*
G01X20302Y1154D01*
G01X20702Y1315D01*
G01X20706Y1317D01*
G01X20705Y1316D01*
G01X21104Y1491D01*
G01X21109Y1493D01*
G01X21107Y1493D01*
G01X21576Y1717D01*
G01X21580Y1719D01*
G01X21579Y1718D01*
G01X21981Y1926D01*
G01X21985Y1929D01*
G01X22387Y2151D01*
G01X22391Y2153D01*
G01X22390Y2153D01*
G01X22796Y2392D01*
G01X22798Y2393D01*
G01X23206Y2648D01*
G01X23208Y2649D01*
G01X23619Y2919D01*
G01X23623Y2922D01*
G01X23621Y2921D01*
G01X24105Y3257D01*
G01X24108Y3260D01*
G01X24107Y3258D01*
G01X24411Y3481D01*
G01X24415Y3484D01*
G01X24413Y3483D01*
G01X24667Y3677D01*
G01X24669Y3679D01*
G01X24959Y3914D01*
G01X24962Y3917D01*
G01X24961Y3915D01*
G01X25206Y4124D01*
G01X25209Y4127D01*
G01X25208Y4125D01*
G01X25452Y4343D01*
G01X25454Y4345D01*
G01X25698Y4574D01*
G01X25702Y4577D01*
G01X25947Y4817D01*
G01X25949Y4819D01*
G01X26200Y5075D01*
G01X26201Y5077D01*
G01X26458Y5349D01*
G01X26459Y5351D01*
G01X26722Y5640D01*
G01X26725Y5644D01*
G01X26724Y5642D01*
G01X27281Y6286D01*
G01X27283Y6288D01*
G01X27940Y7089D01*
G01X27941Y7091D01*
G01X28672Y8018D01*
G01X28672Y8019D01*
G01X28787Y8167D01*
G01X28789Y8169D01*
G01X28788Y8169D01*
G01X29477Y9045D01*
G01X29479Y9047D01*
G01X30154Y9889D01*
G01X30156Y9891D01*
G01X30818Y10697D01*
G01X30819Y10698D01*
G01X30820Y10700D01*
G01X31576Y11596D01*
G01X31577Y11598D01*
G01X31578Y11599D01*
G01X32213Y12330D01*
G01X32214Y12331D01*
G01X32214Y12332D01*
G01X32215Y12333D01*
G01X32940Y13143D01*
G01X32941Y13145D01*
G01X32943Y13146D01*
G01X33551Y13803D01*
G01X33552Y13805D01*
G01X33554Y13807D01*
G01X33554Y13806D01*
G01X34150Y14430D01*
G01X34154Y14434D01*
G01X34153Y14434D01*
G01X34738Y15024D01*
G01X34742Y15028D01*
G01X35316Y15585D01*
G01X35317Y15587D01*
G01X35318Y15587D01*
G01X35320Y15589D01*
G01X35319Y15589D01*
G01X35882Y16114D01*
G01X35886Y16117D01*
G01X35887Y16118D01*
G01X36439Y16610D01*
G01X36443Y16613D01*
G01X36446Y16616D01*
G01X36444Y16615D01*
G01X36986Y17075D01*
G01X36989Y17078D01*
G01X36993Y17081D01*
G01X37523Y17508D01*
G01X37529Y17513D01*
G01X38052Y17910D01*
G01X38059Y17915D01*
G01X38656Y18339D01*
G01X38659Y18341D01*
G01X38661Y18342D01*
G01X38707Y18374D01*
G01X38709Y18375D01*
G01X38710Y18376D01*
G01X38991Y18562D01*
G01X38993Y18563D01*
G01X38995Y18565D01*
G01X39325Y18773D01*
G01X39332Y18777D01*
G01X39900Y19113D01*
G01X39908Y19118D01*
G01X40477Y19424D01*
G01X40487Y19428D01*
G01X41053Y19703D01*
G01X41061Y19707D01*
G01X41342Y19833D01*
G01X41348Y19835D01*
G01X41628Y19952D01*
G01X41633Y19954D01*
G01X41911Y20063D01*
G01X41918Y20066D01*
G01X42239Y20182D01*
G01X42245Y20184D01*
G01X42518Y20274D01*
G01X42524Y20276D01*
G01X42794Y20358D01*
G01X42801Y20360D01*
G01X43066Y20432D01*
G01X43074Y20434D01*
G01X43379Y20506D01*
G01X43381Y20507D01*
G01X43383Y20507D01*
G01X43478Y20528D01*
G01X43479Y20528D01*
G01X44043Y20662D01*
G01X44047Y20663D01*
G01X44046Y20662D01*
G01X44678Y20831D01*
G01X44682Y20832D01*
G01X44681Y20832D01*
G01X45200Y20987D01*
G01X45204Y20989D01*
G01X45203Y20988D01*
G01X45704Y21155D01*
G01X45708Y21156D01*
G01X45707Y21156D01*
G01X46188Y21332D01*
G01X46192Y21334D01*
G01X46731Y21554D01*
G01X46734Y21556D01*
G01X47175Y21756D01*
G01X47179Y21757D01*
G01X47605Y21970D01*
G01X48010Y22192D01*
G01X48013Y22194D01*
G01X48400Y22427D01*
G01X48404Y22429D01*
G01X48773Y22673D01*
G01X48776Y22675D01*
G01X49128Y22929D01*
G01X49132Y22932D01*
G01X49522Y23244D01*
G01X49526Y23247D01*
G01X49840Y23526D01*
G01X49844Y23529D01*
G01X50142Y23819D01*
G01X50146Y23823D01*
G01X50434Y24131D01*
G01X50438Y24136D01*
G01X50666Y24414D01*
G01X50670Y24419D01*
G01X50889Y24726D01*
G01X50892Y24730D01*
G01X51108Y25067D01*
G01X51111Y25071D01*
G01X51332Y25454D01*
G01X51334Y25458D01*
G01X51531Y25841D01*
G01X51534Y25846D01*
G01X51696Y26208D01*
G01X51699Y26216D01*
G01X51838Y26611D01*
G01X51841Y26618D01*
G01X51891Y26801D01*
G01X51892Y26805D01*
G01X51992Y27245D01*
G01X51993Y27248D01*
G01X51993Y27250D01*
G01X52115Y27743D01*
G01X52117Y27752D01*
G01X52161Y28032D01*
G01X52162Y28041D01*
G01X52185Y28422D01*
G01X52185Y28427D01*
G01X52192Y28941D01*
G01X52192Y28945D01*
G01X52180Y29515D01*
G01X52180Y29519D01*
G01X52147Y30147D01*
G01X52147Y30151D01*
G01X52104Y30658D01*
G01X52103Y30662D01*
G01X52054Y31069D01*
G01X52053Y31075D01*
G01X51976Y31486D01*
G01X51975Y31491D01*
G01X51824Y32126D01*
G01X51823Y32128D01*
G01X51685Y32667D01*
G01X51685Y32669D01*
G01X51544Y33174D01*
G01X51543Y33177D01*
G01X51394Y33664D01*
G01X51393Y33668D01*
G01X51216Y34196D01*
G01X51215Y34200D01*
G01X51033Y34704D01*
G01X51032Y34706D01*
G01X50824Y35247D01*
G01X50823Y35249D01*
G01X50824Y35249D01*
G01X50564Y35894D01*
G01X50546Y35938D01*
G01X50545Y35939D01*
G01X50350Y36424D01*
G01X50349Y36425D01*
G01X50349Y36426D01*
G01X50348Y36428D01*
G01X50349Y36427D01*
G01X50132Y36984D01*
G01X50132Y36986D01*
G01X50131Y36988D01*
G01X49960Y37446D01*
G01X49959Y37447D01*
G01X49958Y37449D01*
G01X49755Y38018D01*
G01X49754Y38019D01*
G01X49754Y38020D01*
G01X49753Y38021D01*
G01X49592Y38496D01*
G01X49591Y38498D01*
G01X49591Y38500D01*
G01X49429Y39003D01*
G01X49428Y39006D01*
G01X49427Y39008D01*
G01X49267Y39538D01*
G01X49266Y39540D01*
G01X49266Y39542D01*
G01X49150Y39951D01*
G01X49150Y39953D01*
G01X49141Y39984D01*
G01X49141Y39987D01*
G01X48970Y40631D01*
G01X48968Y40639D01*
G01X48836Y41212D01*
G01X48834Y41222D01*
G01X48699Y41935D01*
G01X48698Y41938D01*
G01X48698Y41940D01*
G01X48514Y43022D01*
G01X48514Y43024D01*
G01X48512Y43038D01*
G01X48511Y43047D01*
G01X48486Y43245D01*
G01X48485Y43253D01*
G01X48457Y43557D01*
G01X48456Y43564D01*
G01X48398Y44474D01*
G01X48398Y44479D01*
G01X48349Y45576D01*
G01X48349Y45580D01*
G01X48314Y46769D01*
G01X48314Y46772D01*
G01X48313Y46862D01*
G01X48312Y46863D01*
G01X48312Y46864D01*
G01X48300Y47891D01*
G01X48300Y47896D01*
G01X48309Y48904D01*
G01X48309Y48910D01*
G01X48338Y49752D01*
G01X48338Y49760D01*
G01X48387Y50523D01*
G01X48387Y50530D01*
G01X48420Y50885D01*
G01X48420Y50890D01*
G01X48458Y51228D01*
G01X48459Y51234D01*
G01X48510Y51608D01*
G01X48511Y51615D01*
G01X48560Y51919D01*
G01X48561Y51925D01*
G01X48616Y52216D01*
G01X48618Y52223D01*
G01X48678Y52500D01*
G01X48680Y52507D01*
G01X48746Y52771D01*
G01X48749Y52780D01*
G01X48833Y53073D01*
G01X48833Y53074D01*
G01X48921Y53388D01*
G01X48922Y53391D01*
G01X49013Y53748D01*
G01X49013Y53749D01*
G01X49122Y54204D01*
G01X49122Y54205D01*
G01X49219Y54642D01*
G01X49219Y54643D01*
G01X49439Y55616D01*
G01X49439Y55618D01*
G01X49440Y55620D01*
G01X49688Y56639D01*
G01X49689Y56640D01*
G01X49689Y56642D01*
G01X49699Y56679D01*
G01X49699Y56680D01*
G01X49935Y57615D01*
G01X49936Y57616D01*
G01X50206Y58715D01*
G01X50207Y58716D01*
G01X50206Y58716D01*
G01X50425Y59628D01*
G01X50425Y59629D01*
G01X50588Y60345D01*
G01X50588Y60346D01*
G01X50589Y60352D01*
G01X50590Y60354D01*
G01X50590Y60356D01*
G01X50720Y60920D01*
G01X50721Y60923D01*
G01X50720Y60922D01*
G01X50721Y60925D01*
G01X50880Y61569D01*
G01X50880Y61570D01*
G01X50881Y61571D01*
G01X50883Y61580D01*
G01X50883Y61582D01*
G01X51046Y62261D01*
G01X51047Y62263D01*
G01X51223Y63068D01*
G01X51223Y63069D01*
G01X51227Y63089D01*
G01X51227Y63091D01*
G01X51367Y63741D01*
G01X51367Y63744D01*
G01X51530Y64460D01*
G01X51530Y64462D01*
G01X51531Y64464D01*
G01X51530Y64463D01*
G01X52070Y66728D01*
G01X52070Y66729D01*
G01X52071Y66731D01*
G01X52072Y66738D01*
G01X52073Y66741D01*
G01X52256Y67572D01*
G01X52256Y67575D01*
G01X52463Y68630D01*
G01X52464Y68632D01*
G01X52467Y68648D01*
G01X52467Y68649D01*
G01X52468Y68652D01*
G01X52467Y68651D01*
G01X52565Y69158D01*
G01X52566Y69160D01*
G01X52566Y69161D01*
G01X52669Y69658D01*
G01X52669Y69660D01*
G01X52670Y69663D01*
G01X52770Y70115D01*
G01X52771Y70120D01*
G01X52863Y70499D01*
G01X52938Y70806D01*
G01X52939Y70810D01*
G01X53014Y71155D01*
G01X53015Y71157D01*
G01X53086Y71521D01*
G01X53087Y71526D01*
G01X53147Y71884D01*
G01X53203Y72217D01*
G01X53204Y72223D01*
G01X53279Y72608D01*
G01X53279Y72610D01*
G01X53280Y72613D01*
G01X53353Y72956D01*
G01X53354Y72961D01*
G01X53443Y73338D01*
G01X53443Y73339D01*
G01X53534Y73732D01*
G01X53535Y73737D01*
G01X53534Y73735D01*
G01X53612Y74115D01*
G01X53612Y74117D01*
G01X53676Y74462D01*
G01X53677Y74467D01*
G01X53676Y74465D01*
G01X53735Y74840D01*
G01X53799Y75246D01*
G01X53800Y75249D01*
G01X53800Y75251D01*
G01X53886Y75741D01*
G01X53887Y75743D01*
G01X53887Y75745D01*
G01X54081Y76729D01*
G01X54081Y76731D01*
G01X54082Y76734D01*
G01X54081Y76732D01*
G01X54085Y76749D01*
G01X54085Y76750D01*
G01X54180Y77233D01*
G01X54181Y77235D01*
G01X54278Y77790D01*
G01X54278Y77792D01*
G01X54354Y78290D01*
G01X54355Y78294D01*
G01X54354Y78293D01*
G01X54402Y78680D01*
G01X54403Y78685D01*
G01X54402Y78683D01*
G01X54485Y79510D01*
G01X54488Y79533D01*
G01X54494Y79556D01*
G01X54501Y79578D01*
G01X54511Y79599D01*
G01X54522Y79620D01*
G01X54535Y79639D01*
G01X54550Y79657D01*
G01X54567Y79674D01*
G01X54585Y79689D01*
G01X54604Y79702D01*
G01X54624Y79713D01*
G01X55251Y80030D01*
G01X55255Y80032D01*
G01X55254Y80031D01*
G01X55536Y80186D01*
G01X55542Y80189D01*
G01X55776Y80338D01*
G01X55781Y80342D01*
G01X55994Y80499D01*
G01X56000Y80504D01*
G01X56207Y80683D01*
G01X56213Y80689D01*
G01X56382Y80861D01*
G01X56386Y80866D01*
G01X56452Y80943D01*
G01X56459Y80951D01*
G01X56642Y81213D01*
G01X56648Y81222D01*
G01X56774Y81452D01*
G01X56780Y81466D01*
G01X56867Y81707D01*
G01X56871Y81723D01*
G01X56913Y81942D01*
G01X56914Y81960D01*
G01X56917Y82193D01*
G01X56917Y82198D01*
G01X56904Y82527D01*
G01X56904Y82530D01*
G01X56866Y83092D01*
G01X56866Y83093D01*
G01X56678Y85321D01*
G01X56671Y85407D01*
G01X56671Y85408D01*
G01X56670Y85409D01*
G01X56499Y87547D01*
G01X56499Y87549D01*
G01X56498Y87552D01*
G01X56381Y89286D01*
G01X56381Y89289D01*
G01X56345Y89951D01*
G01X56345Y89954D01*
G01X56324Y90476D01*
G01X56324Y90483D01*
G01X56319Y90842D01*
G01X56319Y90855D01*
G01X56323Y90967D01*
G01X56325Y90992D01*
G01X56331Y91033D01*
G01X56332Y91046D01*
G01X56335Y91305D01*
G01X56335Y91311D01*
G01X56308Y91858D01*
G01X56308Y91860D01*
G01X56254Y92656D01*
G01X56253Y92659D01*
G01X56254Y92658D01*
G01X56182Y93556D01*
G01X56182Y93557D01*
G01X56175Y93638D01*
G01X56175Y93639D01*
G01X56083Y94638D01*
G01X56083Y94641D01*
G01X56007Y95286D01*
G01X56007Y95290D01*
G01X55967Y95545D01*
G01X55966Y95549D01*
G01X55931Y95731D01*
G01X55930Y95736D01*
G01X55884Y95924D01*
G01X55882Y95931D01*
G01X55832Y96086D01*
G01X55829Y96094D01*
G01X55786Y96199D01*
G01X55782Y96207D01*
G01X55724Y96317D01*
G01X55719Y96327D01*
G01X55655Y96421D01*
G01X55648Y96430D01*
G01X55573Y96518D01*
G01X55566Y96525D01*
G01X55480Y96608D01*
G01X55471Y96615D01*
G01X55268Y96771D01*
G01X55264Y96773D01*
G01X54968Y96978D01*
G01X54966Y96980D01*
G01X54349Y97383D01*
G01X54336Y97390D01*
G01X54322Y97395D01*
G01X54308Y97398D01*
G01X54293Y97399D01*
G37*
G36*
G01X38710Y18375D02*
G01X38709Y18375D01*
G01X38708Y18374D01*
G01X38710Y18375D01*
G37*

%LPC*%
G36*
G01X26007Y67955D02*
G01X25974Y67956D01*
G01X25939Y67955D01*
G01X25905Y67952D01*
G01X25871Y67947D01*
G01X25838Y67940D01*
G01X25804Y67930D01*
G01X25772Y67919D01*
G01X25740Y67906D01*
G01X25710Y67890D01*
G01X25680Y67873D01*
G01X25651Y67855D01*
G01X25624Y67834D01*
G01X25597Y67812D01*
G01X25573Y67788D01*
G01X25549Y67763D01*
G01X25528Y67736D01*
G01X25508Y67708D01*
G01X25489Y67679D01*
G01X25473Y67649D01*
G01X25458Y67618D01*
G01X25446Y67586D01*
G01X25435Y67553D01*
G01X25426Y67520D01*
G01X25420Y67487D01*
G01X25415Y67452D01*
G01X25412Y67418D01*
G01X25411Y67403D01*
G01X25407Y67389D01*
G01X25401Y67375D01*
G01X25393Y67362D01*
G01X25383Y67351D01*
G01X21583Y63548D01*
G01X21562Y63526D01*
G01X21543Y63502D01*
G01X21527Y63477D01*
G01X21512Y63450D01*
G01X21499Y63423D01*
G01X21489Y63394D01*
G01X21480Y63365D01*
G01X21474Y63335D01*
G01X21471Y63305D01*
G01X21470Y63275D01*
G01X21470Y52528D01*
G01X21469Y52512D01*
G01X21465Y52498D01*
G01X21460Y52484D01*
G01X21452Y52471D01*
G01X21443Y52459D01*
G01X21420Y52432D01*
G01X21399Y52405D01*
G01X21380Y52376D01*
G01X21362Y52346D01*
G01X21347Y52315D01*
G01X21333Y52283D01*
G01X21321Y52250D01*
G01X21312Y52216D01*
G01X21304Y52182D01*
G01X21299Y52148D01*
G01X21296Y52113D01*
G01X21295Y52079D01*
G01X21296Y52045D01*
G01X21299Y52011D01*
G01X21304Y51977D01*
G01X21311Y51944D01*
G01X21320Y51912D01*
G01X21331Y51880D01*
G01X21344Y51848D01*
G01X21359Y51818D01*
G01X21376Y51788D01*
G01X21394Y51760D01*
G01X21414Y51732D01*
G01X21436Y51706D01*
G01X21459Y51682D01*
G01X21484Y51658D01*
G01X21510Y51637D01*
G01X21537Y51617D01*
G01X21566Y51598D01*
G01X21595Y51581D01*
G01X21626Y51567D01*
G01X21657Y51554D01*
G01X21689Y51543D01*
G01X21722Y51533D01*
G01X21755Y51526D01*
G01X21789Y51521D01*
G01X21822Y51518D01*
G01X21856Y51517D01*
G01X21890Y51518D01*
G01X21924Y51521D01*
G01X21957Y51526D01*
G01X21991Y51533D01*
G01X22023Y51543D01*
G01X22055Y51554D01*
G01X22087Y51567D01*
G01X22117Y51581D01*
G01X22147Y51598D01*
G01X22175Y51617D01*
G01X22203Y51637D01*
G01X22229Y51658D01*
G01X22277Y51706D01*
G01X22298Y51732D01*
G01X22318Y51760D01*
G01X22337Y51788D01*
G01X22353Y51818D01*
G01X22368Y51848D01*
G01X22381Y51880D01*
G01X22392Y51912D01*
G01X22401Y51944D01*
G01X22409Y51977D01*
G01X22414Y52011D01*
G01X22417Y52045D01*
G01X22418Y52079D01*
G01X22417Y52113D01*
G01X22413Y52148D01*
G01X22408Y52182D01*
G01X22401Y52216D01*
G01X22391Y52250D01*
G01X22379Y52283D01*
G01X22366Y52315D01*
G01X22350Y52346D01*
G01X22333Y52376D01*
G01X22313Y52405D01*
G01X22292Y52432D01*
G01X22270Y52459D01*
G01X22260Y52471D01*
G01X22253Y52484D01*
G01X22247Y52498D01*
G01X22244Y52512D01*
G01X22243Y52528D01*
G01X22243Y63073D01*
G01X22244Y63089D01*
G01X22248Y63104D01*
G01X22254Y63119D01*
G01X22262Y63133D01*
G01X22272Y63145D01*
G01X25930Y66804D01*
G01X25941Y66814D01*
G01X25954Y66822D01*
G01X25968Y66828D01*
G01X25982Y66832D01*
G01X25997Y66834D01*
G01X26031Y66836D01*
G01X26065Y66841D01*
G01X26099Y66848D01*
G01X26132Y66856D01*
G01X26165Y66867D01*
G01X26197Y66880D01*
G01X26228Y66894D01*
G01X26258Y66911D01*
G01X26287Y66929D01*
G01X26315Y66949D01*
G01X26342Y66971D01*
G01X26367Y66994D01*
G01X26391Y67019D01*
G01X26413Y67045D01*
G01X26433Y67073D01*
G01X26452Y67101D01*
G01X26469Y67131D01*
G01X26484Y67162D01*
G01X26498Y67193D01*
G01X26509Y67226D01*
G01X26518Y67259D01*
G01X26526Y67292D01*
G01X26531Y67326D01*
G01X26534Y67361D01*
G01X26535Y67395D01*
G01X26534Y67429D01*
G01X26531Y67463D01*
G01X26526Y67496D01*
G01X26519Y67529D01*
G01X26510Y67562D01*
G01X26499Y67594D01*
G01X26486Y67625D01*
G01X26471Y67656D01*
G01X26454Y67685D01*
G01X26436Y67714D01*
G01X26416Y67741D01*
G01X26394Y67767D01*
G01X26371Y67792D01*
G01X26346Y67815D01*
G01X26320Y67837D01*
G01X26293Y67857D01*
G01X26264Y67875D01*
G01X26234Y67892D01*
G01X26204Y67907D01*
G01X26173Y67920D01*
G01X26141Y67931D01*
G01X26108Y67940D01*
G01X26075Y67947D01*
G01X26041Y67952D01*
G01X26007Y67955D01*
G37*
G36*
G01X26871Y70540D02*
G01X26837Y70541D01*
G01X26803Y70540D01*
G01X26770Y70537D01*
G01X26736Y70532D01*
G01X26703Y70525D01*
G01X26670Y70516D01*
G01X26638Y70505D01*
G01X26607Y70492D01*
G01X26576Y70477D01*
G01X26547Y70461D01*
G01X26518Y70442D01*
G01X26491Y70422D01*
G01X26465Y70400D01*
G01X26440Y70377D01*
G01X26417Y70352D01*
G01X26395Y70326D01*
G01X26375Y70299D01*
G01X26357Y70270D01*
G01X26340Y70241D01*
G01X26325Y70210D01*
G01X26312Y70179D01*
G01X26301Y70147D01*
G01X26292Y70114D01*
G01X26285Y70081D01*
G01X26280Y70048D01*
G01X26277Y70014D01*
G01X26276Y69980D01*
G01X26277Y69945D01*
G01X26280Y69909D01*
G01X26286Y69875D01*
G01X26293Y69840D01*
G01X26303Y69806D01*
G01X26315Y69773D01*
G01X26329Y69741D01*
G01X26345Y69709D01*
G01X26363Y69679D01*
G01X26383Y69649D01*
G01X26393Y69632D01*
G01X26441Y69529D01*
G01X26446Y69515D01*
G01X26450Y69501D01*
G01X26451Y69486D01*
G01X26451Y68512D01*
G01X26452Y68482D01*
G01X26455Y68452D01*
G01X26461Y68422D01*
G01X26470Y68393D01*
G01X26480Y68365D01*
G01X26493Y68337D01*
G01X26508Y68311D01*
G01X26524Y68285D01*
G01X26543Y68261D01*
G01X26564Y68239D01*
G01X30784Y64019D01*
G01X30794Y64008D01*
G01X30801Y63996D01*
G01X30807Y63982D01*
G01X30847Y63875D01*
G01X30852Y63856D01*
G01X30858Y63822D01*
G01X30867Y63788D01*
G01X30877Y63755D01*
G01X30890Y63723D01*
G01X30904Y63692D01*
G01X30921Y63662D01*
G01X30939Y63632D01*
G01X30959Y63604D01*
G01X30981Y63577D01*
G01X31004Y63552D01*
G01X31029Y63528D01*
G01X31055Y63505D01*
G01X31083Y63484D01*
G01X31111Y63465D01*
G01X31141Y63448D01*
G01X31172Y63433D01*
G01X31204Y63419D01*
G01X31237Y63408D01*
G01X31270Y63398D01*
G01X31304Y63391D01*
G01X31338Y63386D01*
G01X31372Y63383D01*
G01X31407Y63381D01*
G01X31441Y63382D01*
G01X31474Y63386D01*
G01X31508Y63391D01*
G01X31541Y63398D01*
G01X31574Y63407D01*
G01X31606Y63418D01*
G01X31637Y63431D01*
G01X31668Y63446D01*
G01X31697Y63462D01*
G01X31726Y63481D01*
G01X31753Y63501D01*
G01X31779Y63523D01*
G01X31804Y63546D01*
G01X31827Y63571D01*
G01X31849Y63597D01*
G01X31869Y63624D01*
G01X31887Y63653D01*
G01X31904Y63682D01*
G01X31919Y63713D01*
G01X31932Y63744D01*
G01X31943Y63776D01*
G01X31952Y63809D01*
G01X31959Y63842D01*
G01X31964Y63875D01*
G01X31967Y63909D01*
G01X31968Y63943D01*
G01X31967Y63978D01*
G01X31964Y64012D01*
G01X31959Y64046D01*
G01X31951Y64080D01*
G01X31942Y64113D01*
G01X31930Y64146D01*
G01X31917Y64177D01*
G01X31902Y64208D01*
G01X31884Y64238D01*
G01X31865Y64267D01*
G01X31844Y64295D01*
G01X31822Y64321D01*
G01X31798Y64346D01*
G01X31773Y64369D01*
G01X31746Y64391D01*
G01X31718Y64411D01*
G01X31688Y64429D01*
G01X31658Y64445D01*
G01X31626Y64460D01*
G01X31594Y64472D01*
G01X31561Y64483D01*
G01X31528Y64491D01*
G01X31494Y64498D01*
G01X31475Y64503D01*
G01X31367Y64542D01*
G01X31354Y64548D01*
G01X31342Y64556D01*
G01X31331Y64566D01*
G01X27253Y68643D01*
G01X27243Y68655D01*
G01X27235Y68669D01*
G01X27229Y68683D01*
G01X27225Y68699D01*
G01X27224Y68715D01*
G01X27224Y69486D01*
G01X27225Y69500D01*
G01X27228Y69515D01*
G01X27233Y69528D01*
G01X27281Y69632D01*
G01X27291Y69649D01*
G01X27311Y69679D01*
G01X27329Y69709D01*
G01X27345Y69741D01*
G01X27359Y69773D01*
G01X27371Y69806D01*
G01X27381Y69840D01*
G01X27389Y69875D01*
G01X27394Y69909D01*
G01X27398Y69945D01*
G01X27399Y69980D01*
G01X27398Y70014D01*
G01X27395Y70048D01*
G01X27390Y70081D01*
G01X27382Y70114D01*
G01X27373Y70147D01*
G01X27362Y70179D01*
G01X27349Y70210D01*
G01X27334Y70241D01*
G01X27318Y70270D01*
G01X27299Y70299D01*
G01X27279Y70326D01*
G01X27258Y70352D01*
G01X27234Y70377D01*
G01X27210Y70400D01*
G01X27184Y70422D01*
G01X27156Y70442D01*
G01X27128Y70461D01*
G01X27098Y70477D01*
G01X27068Y70492D01*
G01X27036Y70505D01*
G01X27004Y70516D01*
G01X26972Y70525D01*
G01X26938Y70532D01*
G01X26905Y70537D01*
G01X26871Y70540D01*
G37*
G36*
G01X31665Y18979D02*
G01X30765Y18979D01*
G01X30741Y18978D01*
G01X30718Y18975D01*
G01X30695Y18970D01*
G01X30672Y18962D01*
G01X30651Y18953D01*
G01X30630Y18941D01*
G01X30611Y18928D01*
G01X30592Y18913D01*
G01X30576Y18896D01*
G01X30560Y18878D01*
G01X30547Y18858D01*
G01X30536Y18837D01*
G01X30526Y18816D01*
G01X30518Y18793D01*
G01X30513Y18770D01*
G01X30510Y18747D01*
G01X30509Y18723D01*
G01X30509Y17723D01*
G01X30510Y17699D01*
G01X30513Y17676D01*
G01X30518Y17653D01*
G01X30526Y17630D01*
G01X30536Y17609D01*
G01X30547Y17588D01*
G01X30560Y17568D01*
G01X30576Y17550D01*
G01X30592Y17533D01*
G01X30611Y17518D01*
G01X30630Y17505D01*
G01X30651Y17493D01*
G01X30672Y17484D01*
G01X30695Y17476D01*
G01X30718Y17471D01*
G01X30741Y17468D01*
G01X30765Y17466D01*
G01X31665Y17466D01*
G01X31689Y17468D01*
G01X31712Y17471D01*
G01X31735Y17476D01*
G01X31758Y17484D01*
G01X31779Y17493D01*
G01X31800Y17505D01*
G01X31820Y17518D01*
G01X31838Y17533D01*
G01X31855Y17550D01*
G01X31870Y17568D01*
G01X31883Y17588D01*
G01X31895Y17609D01*
G01X31904Y17630D01*
G01X31912Y17653D01*
G01X31917Y17676D01*
G01X31921Y17699D01*
G01X31922Y17723D01*
G01X31922Y18723D01*
G01X31921Y18747D01*
G01X31917Y18770D01*
G01X31912Y18793D01*
G01X31904Y18816D01*
G01X31895Y18837D01*
G01X31883Y18858D01*
G01X31870Y18878D01*
G01X31855Y18896D01*
G01X31838Y18913D01*
G01X31820Y18928D01*
G01X31800Y18941D01*
G01X31779Y18953D01*
G01X31758Y18962D01*
G01X31735Y18970D01*
G01X31712Y18975D01*
G01X31689Y18978D01*
G01X31665Y18979D01*
G37*
G36*
G01X13377Y30663D02*
G01X12477Y30663D01*
G01X12453Y30662D01*
G01X12430Y30659D01*
G01X12407Y30654D01*
G01X12384Y30646D01*
G01X12363Y30637D01*
G01X12342Y30625D01*
G01X12323Y30612D01*
G01X12304Y30597D01*
G01X12288Y30580D01*
G01X12272Y30562D01*
G01X12259Y30542D01*
G01X12248Y30521D01*
G01X12238Y30500D01*
G01X12230Y30477D01*
G01X12225Y30454D01*
G01X12222Y30431D01*
G01X12221Y30407D01*
G01X12221Y29407D01*
G01X12222Y29383D01*
G01X12225Y29360D01*
G01X12230Y29337D01*
G01X12238Y29314D01*
G01X12248Y29293D01*
G01X12259Y29272D01*
G01X12272Y29252D01*
G01X12288Y29234D01*
G01X12304Y29217D01*
G01X12323Y29202D01*
G01X12342Y29189D01*
G01X12363Y29177D01*
G01X12384Y29168D01*
G01X12407Y29160D01*
G01X12430Y29155D01*
G01X12453Y29152D01*
G01X12477Y29150D01*
G01X13377Y29150D01*
G01X13401Y29152D01*
G01X13424Y29155D01*
G01X13447Y29160D01*
G01X13470Y29168D01*
G01X13491Y29177D01*
G01X13512Y29189D01*
G01X13532Y29202D01*
G01X13550Y29217D01*
G01X13567Y29234D01*
G01X13582Y29252D01*
G01X13595Y29272D01*
G01X13607Y29293D01*
G01X13616Y29314D01*
G01X13624Y29337D01*
G01X13629Y29360D01*
G01X13633Y29383D01*
G01X13634Y29407D01*
G01X13634Y30407D01*
G01X13633Y30431D01*
G01X13629Y30454D01*
G01X13624Y30477D01*
G01X13616Y30500D01*
G01X13607Y30521D01*
G01X13595Y30542D01*
G01X13582Y30562D01*
G01X13567Y30580D01*
G01X13550Y30597D01*
G01X13532Y30612D01*
G01X13512Y30625D01*
G01X13491Y30637D01*
G01X13470Y30646D01*
G01X13447Y30654D01*
G01X13424Y30659D01*
G01X13401Y30662D01*
G01X13377Y30663D01*
G37*
G36*
G01X11980Y91115D02*
G01X11080Y91115D01*
G01X11056Y91114D01*
G01X11033Y91111D01*
G01X11010Y91106D01*
G01X10987Y91098D01*
G01X10966Y91089D01*
G01X10945Y91077D01*
G01X10926Y91064D01*
G01X10907Y91049D01*
G01X10891Y91032D01*
G01X10875Y91014D01*
G01X10862Y90994D01*
G01X10851Y90973D01*
G01X10841Y90952D01*
G01X10833Y90929D01*
G01X10828Y90906D01*
G01X10825Y90883D01*
G01X10824Y90859D01*
G01X10824Y89859D01*
G01X10825Y89835D01*
G01X10828Y89812D01*
G01X10833Y89789D01*
G01X10841Y89766D01*
G01X10851Y89745D01*
G01X10862Y89724D01*
G01X10875Y89704D01*
G01X10891Y89686D01*
G01X10907Y89669D01*
G01X10926Y89654D01*
G01X10945Y89641D01*
G01X10966Y89629D01*
G01X10987Y89620D01*
G01X11010Y89612D01*
G01X11033Y89607D01*
G01X11056Y89604D01*
G01X11080Y89602D01*
G01X11980Y89602D01*
G01X12004Y89604D01*
G01X12027Y89607D01*
G01X12050Y89612D01*
G01X12073Y89620D01*
G01X12094Y89629D01*
G01X12115Y89641D01*
G01X12135Y89654D01*
G01X12153Y89669D01*
G01X12170Y89686D01*
G01X12185Y89704D01*
G01X12198Y89724D01*
G01X12210Y89745D01*
G01X12219Y89766D01*
G01X12227Y89789D01*
G01X12232Y89812D01*
G01X12236Y89835D01*
G01X12237Y89859D01*
G01X12237Y90859D01*
G01X12236Y90883D01*
G01X12232Y90906D01*
G01X12227Y90929D01*
G01X12219Y90952D01*
G01X12210Y90973D01*
G01X12198Y90994D01*
G01X12185Y91014D01*
G01X12170Y91032D01*
G01X12153Y91049D01*
G01X12135Y91064D01*
G01X12115Y91077D01*
G01X12094Y91089D01*
G01X12073Y91098D01*
G01X12050Y91106D01*
G01X12027Y91111D01*
G01X12004Y91114D01*
G01X11980Y91115D01*
G37*
G36*
G01X47540Y63048D02*
G01X46640Y63048D01*
G01X46616Y63047D01*
G01X46593Y63044D01*
G01X46570Y63039D01*
G01X46547Y63031D01*
G01X46526Y63022D01*
G01X46505Y63010D01*
G01X46486Y62997D01*
G01X46467Y62982D01*
G01X46451Y62965D01*
G01X46435Y62947D01*
G01X46422Y62927D01*
G01X46411Y62906D01*
G01X46401Y62885D01*
G01X46393Y62862D01*
G01X46388Y62839D01*
G01X46385Y62816D01*
G01X46384Y62792D01*
G01X46384Y61792D01*
G01X46385Y61768D01*
G01X46388Y61745D01*
G01X46393Y61722D01*
G01X46401Y61699D01*
G01X46411Y61678D01*
G01X46422Y61657D01*
G01X46435Y61637D01*
G01X46451Y61619D01*
G01X46467Y61602D01*
G01X46486Y61587D01*
G01X46505Y61574D01*
G01X46526Y61562D01*
G01X46547Y61553D01*
G01X46570Y61545D01*
G01X46593Y61540D01*
G01X46616Y61537D01*
G01X46640Y61535D01*
G01X47540Y61535D01*
G01X47564Y61537D01*
G01X47587Y61540D01*
G01X47610Y61545D01*
G01X47633Y61553D01*
G01X47654Y61562D01*
G01X47675Y61574D01*
G01X47695Y61587D01*
G01X47713Y61602D01*
G01X47730Y61619D01*
G01X47745Y61637D01*
G01X47758Y61657D01*
G01X47770Y61678D01*
G01X47779Y61699D01*
G01X47787Y61722D01*
G01X47792Y61745D01*
G01X47796Y61768D01*
G01X47797Y61792D01*
G01X47797Y62792D01*
G01X47796Y62816D01*
G01X47792Y62839D01*
G01X47787Y62862D01*
G01X47779Y62885D01*
G01X47770Y62906D01*
G01X47758Y62927D01*
G01X47745Y62947D01*
G01X47730Y62965D01*
G01X47713Y62982D01*
G01X47695Y62997D01*
G01X47675Y63010D01*
G01X47654Y63022D01*
G01X47633Y63031D01*
G01X47610Y63039D01*
G01X47587Y63044D01*
G01X47564Y63047D01*
G01X47540Y63048D01*
G37*
G36*
G01X40682Y35616D02*
G01X39782Y35616D01*
G01X39758Y35615D01*
G01X39735Y35612D01*
G01X39712Y35607D01*
G01X39689Y35599D01*
G01X39668Y35590D01*
G01X39647Y35578D01*
G01X39628Y35565D01*
G01X39609Y35550D01*
G01X39593Y35533D01*
G01X39577Y35515D01*
G01X39564Y35495D01*
G01X39553Y35474D01*
G01X39543Y35453D01*
G01X39535Y35430D01*
G01X39530Y35407D01*
G01X39527Y35384D01*
G01X39526Y35360D01*
G01X39526Y34360D01*
G01X39527Y34336D01*
G01X39530Y34313D01*
G01X39535Y34290D01*
G01X39543Y34267D01*
G01X39553Y34246D01*
G01X39564Y34225D01*
G01X39577Y34205D01*
G01X39593Y34187D01*
G01X39609Y34170D01*
G01X39628Y34155D01*
G01X39647Y34142D01*
G01X39668Y34130D01*
G01X39689Y34121D01*
G01X39712Y34113D01*
G01X39735Y34108D01*
G01X39758Y34105D01*
G01X39782Y34103D01*
G01X40682Y34103D01*
G01X40706Y34105D01*
G01X40729Y34108D01*
G01X40752Y34113D01*
G01X40775Y34121D01*
G01X40796Y34130D01*
G01X40817Y34142D01*
G01X40837Y34155D01*
G01X40855Y34170D01*
G01X40872Y34187D01*
G01X40887Y34205D01*
G01X40900Y34225D01*
G01X40912Y34246D01*
G01X40921Y34267D01*
G01X40929Y34290D01*
G01X40934Y34313D01*
G01X40938Y34336D01*
G01X40939Y34360D01*
G01X40939Y35360D01*
G01X40938Y35384D01*
G01X40934Y35407D01*
G01X40929Y35430D01*
G01X40921Y35453D01*
G01X40912Y35474D01*
G01X40900Y35495D01*
G01X40887Y35515D01*
G01X40872Y35533D01*
G01X40855Y35550D01*
G01X40837Y35565D01*
G01X40817Y35578D01*
G01X40796Y35590D01*
G01X40775Y35599D01*
G01X40752Y35607D01*
G01X40729Y35612D01*
G01X40706Y35615D01*
G01X40682Y35616D01*
G37*
G36*
G01X39539Y88321D02*
G01X38639Y88321D01*
G01X38615Y88320D01*
G01X38592Y88317D01*
G01X38569Y88312D01*
G01X38546Y88304D01*
G01X38525Y88295D01*
G01X38504Y88283D01*
G01X38485Y88270D01*
G01X38466Y88255D01*
G01X38450Y88238D01*
G01X38434Y88220D01*
G01X38421Y88200D01*
G01X38410Y88179D01*
G01X38400Y88158D01*
G01X38392Y88135D01*
G01X38387Y88112D01*
G01X38384Y88089D01*
G01X38383Y88065D01*
G01X38383Y87065D01*
G01X38384Y87041D01*
G01X38387Y87018D01*
G01X38392Y86995D01*
G01X38400Y86972D01*
G01X38410Y86951D01*
G01X38421Y86930D01*
G01X38434Y86910D01*
G01X38450Y86892D01*
G01X38466Y86875D01*
G01X38485Y86860D01*
G01X38504Y86847D01*
G01X38525Y86835D01*
G01X38546Y86826D01*
G01X38569Y86818D01*
G01X38592Y86813D01*
G01X38615Y86810D01*
G01X38639Y86808D01*
G01X39539Y86808D01*
G01X39563Y86810D01*
G01X39586Y86813D01*
G01X39609Y86818D01*
G01X39632Y86826D01*
G01X39653Y86835D01*
G01X39674Y86847D01*
G01X39694Y86860D01*
G01X39712Y86875D01*
G01X39729Y86892D01*
G01X39744Y86910D01*
G01X39757Y86930D01*
G01X39769Y86951D01*
G01X39778Y86972D01*
G01X39786Y86995D01*
G01X39791Y87018D01*
G01X39795Y87041D01*
G01X39796Y87065D01*
G01X39796Y88065D01*
G01X39795Y88089D01*
G01X39791Y88112D01*
G01X39786Y88135D01*
G01X39778Y88158D01*
G01X39769Y88179D01*
G01X39757Y88200D01*
G01X39744Y88220D01*
G01X39729Y88238D01*
G01X39712Y88255D01*
G01X39694Y88270D01*
G01X39674Y88283D01*
G01X39653Y88295D01*
G01X39632Y88304D01*
G01X39609Y88312D01*
G01X39586Y88317D01*
G01X39563Y88320D01*
G01X39539Y88321D01*
G37*
G36*
G01X32173Y72319D02*
G01X31273Y72319D01*
G01X31249Y72318D01*
G01X31226Y72315D01*
G01X31203Y72310D01*
G01X31180Y72302D01*
G01X31159Y72293D01*
G01X31138Y72281D01*
G01X31119Y72268D01*
G01X31100Y72253D01*
G01X31084Y72236D01*
G01X31068Y72218D01*
G01X31055Y72198D01*
G01X31044Y72177D01*
G01X31034Y72156D01*
G01X31026Y72133D01*
G01X31021Y72110D01*
G01X31018Y72087D01*
G01X31017Y72063D01*
G01X31017Y71063D01*
G01X31018Y71039D01*
G01X31021Y71016D01*
G01X31026Y70993D01*
G01X31034Y70970D01*
G01X31044Y70949D01*
G01X31055Y70928D01*
G01X31068Y70908D01*
G01X31084Y70890D01*
G01X31100Y70873D01*
G01X31119Y70858D01*
G01X31138Y70845D01*
G01X31159Y70833D01*
G01X31180Y70824D01*
G01X31203Y70816D01*
G01X31226Y70811D01*
G01X31249Y70808D01*
G01X31273Y70806D01*
G01X32173Y70806D01*
G01X32197Y70808D01*
G01X32220Y70811D01*
G01X32243Y70816D01*
G01X32266Y70824D01*
G01X32287Y70833D01*
G01X32308Y70845D01*
G01X32328Y70858D01*
G01X32346Y70873D01*
G01X32363Y70890D01*
G01X32378Y70908D01*
G01X32391Y70928D01*
G01X32403Y70949D01*
G01X32412Y70970D01*
G01X32420Y70993D01*
G01X32425Y71016D01*
G01X32429Y71039D01*
G01X32430Y71063D01*
G01X32430Y72063D01*
G01X32429Y72087D01*
G01X32425Y72110D01*
G01X32420Y72133D01*
G01X32412Y72156D01*
G01X32403Y72177D01*
G01X32391Y72198D01*
G01X32378Y72218D01*
G01X32363Y72236D01*
G01X32346Y72253D01*
G01X32328Y72268D01*
G01X32308Y72281D01*
G01X32287Y72293D01*
G01X32266Y72302D01*
G01X32243Y72310D01*
G01X32220Y72315D01*
G01X32197Y72318D01*
G01X32173Y72319D01*
G37*
G36*
G01X27601Y50983D02*
G01X26701Y50983D01*
G01X26677Y50982D01*
G01X26654Y50979D01*
G01X26631Y50974D01*
G01X26608Y50966D01*
G01X26587Y50957D01*
G01X26566Y50945D01*
G01X26547Y50932D01*
G01X26528Y50917D01*
G01X26512Y50900D01*
G01X26496Y50882D01*
G01X26483Y50862D01*
G01X26472Y50841D01*
G01X26462Y50820D01*
G01X26454Y50797D01*
G01X26449Y50774D01*
G01X26446Y50751D01*
G01X26445Y50727D01*
G01X26445Y49727D01*
G01X26446Y49703D01*
G01X26449Y49680D01*
G01X26454Y49657D01*
G01X26462Y49634D01*
G01X26472Y49613D01*
G01X26483Y49592D01*
G01X26496Y49572D01*
G01X26512Y49554D01*
G01X26528Y49537D01*
G01X26547Y49522D01*
G01X26566Y49509D01*
G01X26587Y49497D01*
G01X26608Y49488D01*
G01X26631Y49480D01*
G01X26654Y49475D01*
G01X26677Y49472D01*
G01X26701Y49470D01*
G01X27601Y49470D01*
G01X27625Y49472D01*
G01X27648Y49475D01*
G01X27671Y49480D01*
G01X27694Y49488D01*
G01X27715Y49497D01*
G01X27736Y49509D01*
G01X27756Y49522D01*
G01X27774Y49537D01*
G01X27791Y49554D01*
G01X27806Y49572D01*
G01X27819Y49592D01*
G01X27831Y49613D01*
G01X27840Y49634D01*
G01X27848Y49657D01*
G01X27853Y49680D01*
G01X27857Y49703D01*
G01X27858Y49727D01*
G01X27858Y50727D01*
G01X27857Y50751D01*
G01X27853Y50774D01*
G01X27848Y50797D01*
G01X27840Y50820D01*
G01X27831Y50841D01*
G01X27819Y50862D01*
G01X27806Y50882D01*
G01X27791Y50900D01*
G01X27774Y50917D01*
G01X27756Y50932D01*
G01X27736Y50945D01*
G01X27715Y50957D01*
G01X27694Y50966D01*
G01X27671Y50974D01*
G01X27648Y50979D01*
G01X27625Y50982D01*
G01X27601Y50983D01*
G37*
G36*
G01X38244Y35616D02*
G01X38082Y35616D01*
G01X38058Y35615D01*
G01X38035Y35612D01*
G01X38012Y35607D01*
G01X37989Y35599D01*
G01X37968Y35590D01*
G01X37947Y35578D01*
G01X37928Y35565D01*
G01X37909Y35550D01*
G01X37893Y35533D01*
G01X37877Y35515D01*
G01X37864Y35495D01*
G01X37853Y35474D01*
G01X37843Y35453D01*
G01X37835Y35430D01*
G01X37830Y35407D01*
G01X37827Y35384D01*
G01X37826Y35360D01*
G01X37826Y35173D01*
G01X38244Y35173D01*
G01X38244Y35616D01*
G37*
G36*
G01X25163Y50983D02*
G01X25001Y50983D01*
G01X24977Y50982D01*
G01X24954Y50979D01*
G01X24931Y50974D01*
G01X24908Y50966D01*
G01X24887Y50957D01*
G01X24866Y50945D01*
G01X24847Y50932D01*
G01X24828Y50917D01*
G01X24812Y50900D01*
G01X24796Y50882D01*
G01X24783Y50862D01*
G01X24772Y50841D01*
G01X24762Y50820D01*
G01X24754Y50797D01*
G01X24749Y50774D01*
G01X24746Y50751D01*
G01X24745Y50727D01*
G01X24745Y50540D01*
G01X25163Y50540D01*
G01X25163Y50983D01*
G37*
G36*
G01X29227Y18979D02*
G01X29065Y18979D01*
G01X29041Y18978D01*
G01X29018Y18975D01*
G01X28995Y18970D01*
G01X28972Y18962D01*
G01X28951Y18953D01*
G01X28930Y18941D01*
G01X28911Y18928D01*
G01X28892Y18913D01*
G01X28876Y18896D01*
G01X28860Y18878D01*
G01X28847Y18858D01*
G01X28836Y18837D01*
G01X28826Y18816D01*
G01X28818Y18793D01*
G01X28813Y18770D01*
G01X28810Y18747D01*
G01X28809Y18723D01*
G01X28809Y18536D01*
G01X29227Y18536D01*
G01X29227Y18979D01*
G37*
G36*
G01X10939Y30663D02*
G01X10777Y30663D01*
G01X10753Y30662D01*
G01X10730Y30659D01*
G01X10707Y30654D01*
G01X10684Y30646D01*
G01X10663Y30637D01*
G01X10642Y30625D01*
G01X10623Y30612D01*
G01X10604Y30597D01*
G01X10588Y30580D01*
G01X10572Y30562D01*
G01X10559Y30542D01*
G01X10548Y30521D01*
G01X10538Y30500D01*
G01X10530Y30477D01*
G01X10525Y30454D01*
G01X10522Y30431D01*
G01X10521Y30407D01*
G01X10521Y30220D01*
G01X10939Y30220D01*
G01X10939Y30663D01*
G37*
G36*
G01X45102Y63048D02*
G01X44940Y63048D01*
G01X44916Y63047D01*
G01X44893Y63044D01*
G01X44870Y63039D01*
G01X44847Y63031D01*
G01X44826Y63022D01*
G01X44805Y63010D01*
G01X44786Y62997D01*
G01X44767Y62982D01*
G01X44751Y62965D01*
G01X44735Y62947D01*
G01X44722Y62927D01*
G01X44711Y62906D01*
G01X44701Y62885D01*
G01X44693Y62862D01*
G01X44688Y62839D01*
G01X44685Y62816D01*
G01X44684Y62792D01*
G01X44684Y62605D01*
G01X45102Y62605D01*
G01X45102Y63048D01*
G37*
G36*
G01X9542Y91115D02*
G01X9380Y91115D01*
G01X9356Y91114D01*
G01X9333Y91111D01*
G01X9310Y91106D01*
G01X9287Y91098D01*
G01X9266Y91089D01*
G01X9245Y91077D01*
G01X9226Y91064D01*
G01X9207Y91049D01*
G01X9191Y91032D01*
G01X9175Y91014D01*
G01X9162Y90994D01*
G01X9151Y90973D01*
G01X9141Y90952D01*
G01X9133Y90929D01*
G01X9128Y90906D01*
G01X9125Y90883D01*
G01X9124Y90859D01*
G01X9124Y90672D01*
G01X9542Y90672D01*
G01X9542Y91115D01*
G37*
G36*
G01X37101Y88321D02*
G01X36939Y88321D01*
G01X36915Y88320D01*
G01X36892Y88317D01*
G01X36869Y88312D01*
G01X36846Y88304D01*
G01X36825Y88295D01*
G01X36804Y88283D01*
G01X36785Y88270D01*
G01X36766Y88255D01*
G01X36750Y88238D01*
G01X36734Y88220D01*
G01X36721Y88200D01*
G01X36710Y88179D01*
G01X36700Y88158D01*
G01X36692Y88135D01*
G01X36687Y88112D01*
G01X36684Y88089D01*
G01X36683Y88065D01*
G01X36683Y87878D01*
G01X37101Y87878D01*
G01X37101Y88321D01*
G37*
G36*
G01X29735Y72319D02*
G01X29573Y72319D01*
G01X29549Y72318D01*
G01X29526Y72315D01*
G01X29503Y72310D01*
G01X29480Y72302D01*
G01X29459Y72293D01*
G01X29438Y72281D01*
G01X29419Y72268D01*
G01X29400Y72253D01*
G01X29384Y72236D01*
G01X29368Y72218D01*
G01X29355Y72198D01*
G01X29344Y72177D01*
G01X29334Y72156D01*
G01X29326Y72133D01*
G01X29321Y72110D01*
G01X29318Y72087D01*
G01X29317Y72063D01*
G01X29317Y71876D01*
G01X29735Y71876D01*
G01X29735Y72319D01*
G37*
G36*
G01X25163Y49913D02*
G01X24745Y49913D01*
G01X24745Y49727D01*
G01X24746Y49703D01*
G01X24749Y49680D01*
G01X24754Y49657D01*
G01X24762Y49634D01*
G01X24772Y49613D01*
G01X24783Y49592D01*
G01X24796Y49572D01*
G01X24812Y49554D01*
G01X24828Y49537D01*
G01X24847Y49522D01*
G01X24866Y49509D01*
G01X24887Y49497D01*
G01X24908Y49488D01*
G01X24931Y49480D01*
G01X24954Y49475D01*
G01X24977Y49472D01*
G01X25001Y49470D01*
G01X25163Y49470D01*
G01X25163Y49913D01*
G37*
G36*
G01X37101Y87251D02*
G01X36683Y87251D01*
G01X36683Y87065D01*
G01X36684Y87041D01*
G01X36687Y87018D01*
G01X36692Y86995D01*
G01X36700Y86972D01*
G01X36710Y86951D01*
G01X36721Y86930D01*
G01X36734Y86910D01*
G01X36750Y86892D01*
G01X36766Y86875D01*
G01X36785Y86860D01*
G01X36804Y86847D01*
G01X36825Y86835D01*
G01X36846Y86826D01*
G01X36869Y86818D01*
G01X36892Y86813D01*
G01X36915Y86810D01*
G01X36939Y86808D01*
G01X37101Y86808D01*
G01X37101Y87251D01*
G37*
G36*
G01X29735Y71249D02*
G01X29317Y71249D01*
G01X29317Y71063D01*
G01X29318Y71039D01*
G01X29321Y71016D01*
G01X29326Y70993D01*
G01X29334Y70970D01*
G01X29344Y70949D01*
G01X29355Y70928D01*
G01X29368Y70908D01*
G01X29384Y70890D01*
G01X29400Y70873D01*
G01X29419Y70858D01*
G01X29438Y70845D01*
G01X29459Y70833D01*
G01X29480Y70824D01*
G01X29503Y70816D01*
G01X29526Y70811D01*
G01X29549Y70808D01*
G01X29573Y70806D01*
G01X29735Y70806D01*
G01X29735Y71249D01*
G37*
G36*
G01X38244Y34546D02*
G01X37826Y34546D01*
G01X37826Y34360D01*
G01X37827Y34336D01*
G01X37830Y34313D01*
G01X37835Y34290D01*
G01X37843Y34267D01*
G01X37853Y34246D01*
G01X37864Y34225D01*
G01X37877Y34205D01*
G01X37893Y34187D01*
G01X37909Y34170D01*
G01X37928Y34155D01*
G01X37947Y34142D01*
G01X37968Y34130D01*
G01X37989Y34121D01*
G01X38012Y34113D01*
G01X38035Y34108D01*
G01X38058Y34105D01*
G01X38082Y34103D01*
G01X38244Y34103D01*
G01X38244Y34546D01*
G37*
G36*
G01X9542Y90045D02*
G01X9124Y90045D01*
G01X9124Y89859D01*
G01X9125Y89835D01*
G01X9128Y89812D01*
G01X9133Y89789D01*
G01X9141Y89766D01*
G01X9151Y89745D01*
G01X9162Y89724D01*
G01X9175Y89704D01*
G01X9191Y89686D01*
G01X9207Y89669D01*
G01X9226Y89654D01*
G01X9245Y89641D01*
G01X9266Y89629D01*
G01X9287Y89620D01*
G01X9310Y89612D01*
G01X9333Y89607D01*
G01X9356Y89604D01*
G01X9380Y89602D01*
G01X9542Y89602D01*
G01X9542Y90045D01*
G37*
G36*
G01X29227Y17909D02*
G01X28809Y17909D01*
G01X28809Y17723D01*
G01X28810Y17699D01*
G01X28813Y17676D01*
G01X28818Y17653D01*
G01X28826Y17630D01*
G01X28836Y17609D01*
G01X28847Y17588D01*
G01X28860Y17568D01*
G01X28876Y17550D01*
G01X28892Y17533D01*
G01X28911Y17518D01*
G01X28930Y17505D01*
G01X28951Y17493D01*
G01X28972Y17484D01*
G01X28995Y17476D01*
G01X29018Y17471D01*
G01X29041Y17468D01*
G01X29065Y17466D01*
G01X29227Y17466D01*
G01X29227Y17909D01*
G37*
G36*
G01X10939Y29593D02*
G01X10521Y29593D01*
G01X10521Y29407D01*
G01X10522Y29383D01*
G01X10525Y29360D01*
G01X10530Y29337D01*
G01X10538Y29314D01*
G01X10548Y29293D01*
G01X10559Y29272D01*
G01X10572Y29252D01*
G01X10588Y29234D01*
G01X10604Y29217D01*
G01X10623Y29202D01*
G01X10642Y29189D01*
G01X10663Y29177D01*
G01X10684Y29168D01*
G01X10707Y29160D01*
G01X10730Y29155D01*
G01X10753Y29152D01*
G01X10777Y29150D01*
G01X10939Y29150D01*
G01X10939Y29593D01*
G37*
G36*
G01X45102Y61978D02*
G01X44684Y61978D01*
G01X44684Y61792D01*
G01X44685Y61768D01*
G01X44688Y61745D01*
G01X44693Y61722D01*
G01X44701Y61699D01*
G01X44711Y61678D01*
G01X44722Y61657D01*
G01X44735Y61637D01*
G01X44751Y61619D01*
G01X44767Y61602D01*
G01X44786Y61587D01*
G01X44805Y61574D01*
G01X44826Y61562D01*
G01X44847Y61553D01*
G01X44870Y61545D01*
G01X44893Y61540D01*
G01X44916Y61537D01*
G01X44940Y61535D01*
G01X45102Y61535D01*
G01X45102Y61978D01*
G37*
G36*
G01X29965Y18979D02*
G01X29804Y18979D01*
G01X29804Y18536D01*
G01X30222Y18536D01*
G01X30222Y18723D01*
G01X30221Y18747D01*
G01X30217Y18770D01*
G01X30212Y18793D01*
G01X30204Y18816D01*
G01X30195Y18837D01*
G01X30183Y18858D01*
G01X30170Y18878D01*
G01X30155Y18896D01*
G01X30138Y18913D01*
G01X30120Y18928D01*
G01X30100Y18941D01*
G01X30079Y18953D01*
G01X30058Y18962D01*
G01X30035Y18970D01*
G01X30012Y18975D01*
G01X29989Y18978D01*
G01X29965Y18979D01*
G37*
G36*
G01X11677Y30663D02*
G01X11516Y30663D01*
G01X11516Y30220D01*
G01X11934Y30220D01*
G01X11934Y30407D01*
G01X11933Y30431D01*
G01X11929Y30454D01*
G01X11924Y30477D01*
G01X11916Y30500D01*
G01X11907Y30521D01*
G01X11895Y30542D01*
G01X11882Y30562D01*
G01X11867Y30580D01*
G01X11850Y30597D01*
G01X11832Y30612D01*
G01X11812Y30625D01*
G01X11791Y30637D01*
G01X11770Y30646D01*
G01X11747Y30654D01*
G01X11724Y30659D01*
G01X11701Y30662D01*
G01X11677Y30663D01*
G37*
G36*
G01X10280Y91115D02*
G01X10119Y91115D01*
G01X10119Y90672D01*
G01X10537Y90672D01*
G01X10537Y90859D01*
G01X10536Y90883D01*
G01X10532Y90906D01*
G01X10527Y90929D01*
G01X10519Y90952D01*
G01X10510Y90973D01*
G01X10498Y90994D01*
G01X10485Y91014D01*
G01X10470Y91032D01*
G01X10453Y91049D01*
G01X10435Y91064D01*
G01X10415Y91077D01*
G01X10394Y91089D01*
G01X10373Y91098D01*
G01X10350Y91106D01*
G01X10327Y91111D01*
G01X10304Y91114D01*
G01X10280Y91115D01*
G37*
G36*
G01X38982Y35616D02*
G01X38821Y35616D01*
G01X38821Y35173D01*
G01X39239Y35173D01*
G01X39239Y35360D01*
G01X39238Y35384D01*
G01X39234Y35407D01*
G01X39229Y35430D01*
G01X39221Y35453D01*
G01X39212Y35474D01*
G01X39200Y35495D01*
G01X39187Y35515D01*
G01X39172Y35533D01*
G01X39155Y35550D01*
G01X39137Y35565D01*
G01X39117Y35578D01*
G01X39096Y35590D01*
G01X39075Y35599D01*
G01X39052Y35607D01*
G01X39029Y35612D01*
G01X39006Y35615D01*
G01X38982Y35616D01*
G37*
G36*
G01X37839Y88321D02*
G01X37678Y88321D01*
G01X37678Y87878D01*
G01X38096Y87878D01*
G01X38096Y88065D01*
G01X38095Y88089D01*
G01X38091Y88112D01*
G01X38086Y88135D01*
G01X38078Y88158D01*
G01X38069Y88179D01*
G01X38057Y88200D01*
G01X38044Y88220D01*
G01X38029Y88238D01*
G01X38012Y88255D01*
G01X37994Y88270D01*
G01X37974Y88283D01*
G01X37953Y88295D01*
G01X37932Y88304D01*
G01X37909Y88312D01*
G01X37886Y88317D01*
G01X37863Y88320D01*
G01X37839Y88321D01*
G37*
G36*
G01X25901Y50983D02*
G01X25740Y50983D01*
G01X25740Y50540D01*
G01X26158Y50540D01*
G01X26158Y50727D01*
G01X26157Y50751D01*
G01X26153Y50774D01*
G01X26148Y50797D01*
G01X26140Y50820D01*
G01X26131Y50841D01*
G01X26119Y50862D01*
G01X26106Y50882D01*
G01X26091Y50900D01*
G01X26074Y50917D01*
G01X26056Y50932D01*
G01X26036Y50945D01*
G01X26015Y50957D01*
G01X25994Y50966D01*
G01X25971Y50974D01*
G01X25948Y50979D01*
G01X25925Y50982D01*
G01X25901Y50983D01*
G37*
G36*
G01X30473Y72319D02*
G01X30312Y72319D01*
G01X30312Y71876D01*
G01X30730Y71876D01*
G01X30730Y72063D01*
G01X30729Y72087D01*
G01X30725Y72110D01*
G01X30720Y72133D01*
G01X30712Y72156D01*
G01X30703Y72177D01*
G01X30691Y72198D01*
G01X30678Y72218D01*
G01X30663Y72236D01*
G01X30646Y72253D01*
G01X30628Y72268D01*
G01X30608Y72281D01*
G01X30587Y72293D01*
G01X30566Y72302D01*
G01X30543Y72310D01*
G01X30520Y72315D01*
G01X30497Y72318D01*
G01X30473Y72319D01*
G37*
G36*
G01X45840Y63048D02*
G01X45679Y63048D01*
G01X45679Y62605D01*
G01X46097Y62605D01*
G01X46097Y62792D01*
G01X46096Y62816D01*
G01X46092Y62839D01*
G01X46087Y62862D01*
G01X46079Y62885D01*
G01X46070Y62906D01*
G01X46058Y62927D01*
G01X46045Y62947D01*
G01X46030Y62965D01*
G01X46013Y62982D01*
G01X45995Y62997D01*
G01X45975Y63010D01*
G01X45954Y63022D01*
G01X45933Y63031D01*
G01X45910Y63039D01*
G01X45887Y63044D01*
G01X45864Y63047D01*
G01X45840Y63048D01*
G37*
G36*
G01X46097Y61978D02*
G01X45679Y61978D01*
G01X45679Y61535D01*
G01X45840Y61535D01*
G01X45864Y61537D01*
G01X45887Y61540D01*
G01X45910Y61545D01*
G01X45933Y61553D01*
G01X45954Y61562D01*
G01X45975Y61574D01*
G01X45995Y61587D01*
G01X46013Y61602D01*
G01X46030Y61619D01*
G01X46045Y61637D01*
G01X46058Y61657D01*
G01X46070Y61678D01*
G01X46079Y61699D01*
G01X46087Y61722D01*
G01X46092Y61745D01*
G01X46096Y61768D01*
G01X46097Y61792D01*
G01X46097Y61978D01*
G37*
G36*
G01X30222Y17909D02*
G01X29804Y17909D01*
G01X29804Y17466D01*
G01X29965Y17466D01*
G01X29989Y17468D01*
G01X30012Y17471D01*
G01X30035Y17476D01*
G01X30058Y17484D01*
G01X30079Y17493D01*
G01X30100Y17505D01*
G01X30120Y17518D01*
G01X30138Y17533D01*
G01X30155Y17550D01*
G01X30170Y17568D01*
G01X30183Y17588D01*
G01X30195Y17609D01*
G01X30204Y17630D01*
G01X30212Y17653D01*
G01X30217Y17676D01*
G01X30221Y17699D01*
G01X30222Y17723D01*
G01X30222Y17909D01*
G37*
G36*
G01X30730Y71249D02*
G01X30312Y71249D01*
G01X30312Y70806D01*
G01X30473Y70806D01*
G01X30497Y70808D01*
G01X30520Y70811D01*
G01X30543Y70816D01*
G01X30566Y70824D01*
G01X30587Y70833D01*
G01X30608Y70845D01*
G01X30628Y70858D01*
G01X30646Y70873D01*
G01X30663Y70890D01*
G01X30678Y70908D01*
G01X30691Y70928D01*
G01X30703Y70949D01*
G01X30712Y70970D01*
G01X30720Y70993D01*
G01X30725Y71016D01*
G01X30729Y71039D01*
G01X30730Y71063D01*
G01X30730Y71249D01*
G37*
G36*
G01X11934Y29593D02*
G01X11516Y29593D01*
G01X11516Y29150D01*
G01X11677Y29150D01*
G01X11701Y29152D01*
G01X11724Y29155D01*
G01X11747Y29160D01*
G01X11770Y29168D01*
G01X11791Y29177D01*
G01X11812Y29189D01*
G01X11832Y29202D01*
G01X11850Y29217D01*
G01X11867Y29234D01*
G01X11882Y29252D01*
G01X11895Y29272D01*
G01X11907Y29293D01*
G01X11916Y29314D01*
G01X11924Y29337D01*
G01X11929Y29360D01*
G01X11933Y29383D01*
G01X11934Y29407D01*
G01X11934Y29593D01*
G37*
G36*
G01X38096Y87251D02*
G01X37678Y87251D01*
G01X37678Y86808D01*
G01X37839Y86808D01*
G01X37863Y86810D01*
G01X37886Y86813D01*
G01X37909Y86818D01*
G01X37932Y86826D01*
G01X37953Y86835D01*
G01X37974Y86847D01*
G01X37994Y86860D01*
G01X38012Y86875D01*
G01X38029Y86892D01*
G01X38044Y86910D01*
G01X38057Y86930D01*
G01X38069Y86951D01*
G01X38078Y86972D01*
G01X38086Y86995D01*
G01X38091Y87018D01*
G01X38095Y87041D01*
G01X38096Y87065D01*
G01X38096Y87251D01*
G37*
G36*
G01X26158Y49913D02*
G01X25740Y49913D01*
G01X25740Y49470D01*
G01X25901Y49470D01*
G01X25925Y49472D01*
G01X25948Y49475D01*
G01X25971Y49480D01*
G01X25994Y49488D01*
G01X26015Y49497D01*
G01X26036Y49509D01*
G01X26056Y49522D01*
G01X26074Y49537D01*
G01X26091Y49554D01*
G01X26106Y49572D01*
G01X26119Y49592D01*
G01X26131Y49613D01*
G01X26140Y49634D01*
G01X26148Y49657D01*
G01X26153Y49680D01*
G01X26157Y49703D01*
G01X26158Y49727D01*
G01X26158Y49913D01*
G37*
G36*
G01X10537Y90045D02*
G01X10119Y90045D01*
G01X10119Y89602D01*
G01X10280Y89602D01*
G01X10304Y89604D01*
G01X10327Y89607D01*
G01X10350Y89612D01*
G01X10373Y89620D01*
G01X10394Y89629D01*
G01X10415Y89641D01*
G01X10435Y89654D01*
G01X10453Y89669D01*
G01X10470Y89686D01*
G01X10485Y89704D01*
G01X10498Y89724D01*
G01X10510Y89745D01*
G01X10519Y89766D01*
G01X10527Y89789D01*
G01X10532Y89812D01*
G01X10536Y89835D01*
G01X10537Y89859D01*
G01X10537Y90045D01*
G37*
G36*
G01X39239Y34546D02*
G01X38821Y34546D01*
G01X38821Y34103D01*
G01X38982Y34103D01*
G01X39006Y34105D01*
G01X39029Y34108D01*
G01X39052Y34113D01*
G01X39075Y34121D01*
G01X39096Y34130D01*
G01X39117Y34142D01*
G01X39137Y34155D01*
G01X39155Y34170D01*
G01X39172Y34187D01*
G01X39187Y34205D01*
G01X39200Y34225D01*
G01X39212Y34246D01*
G01X39221Y34267D01*
G01X39229Y34290D01*
G01X39234Y34313D01*
G01X39238Y34336D01*
G01X39239Y34360D01*
G01X39239Y34546D01*
G37*

%LPD*%
G54D11*
G01X40233Y34860D02*
G01X40233Y34860D01*
G01X31216Y18223D02*
G01X31216Y18223D01*
G01X27152Y50227D02*
G01X27152Y50227D01*
G01X12928Y29907D02*
G01X12928Y29907D01*
G01X11531Y90359D02*
G01X11531Y90359D01*
G01X31724Y71563D02*
G01X31724Y71563D01*
G01X47091Y62292D02*
G01X47091Y62292D01*
G01X39090Y87565D02*
G01X39090Y87565D01*
G01X31407Y63943D02*
G01X26837Y68512D01*
G01X26837Y69980D01*
G01X25450Y50227D02*
G01X25450Y50227D01*
G01X11226Y29907D02*
G01X11226Y29907D01*
G01X38531Y34860D02*
G01X38531Y34860D01*
G01X45389Y62292D02*
G01X45389Y62292D01*
G01X37388Y87565D02*
G01X37388Y87565D01*
G01X30022Y71563D02*
G01X30022Y71563D01*
G01X29514Y18223D02*
G01X29514Y18223D01*
G01X9829Y90359D02*
G01X9829Y90359D01*
G01X21856Y52079D02*
G01X21856Y63275D01*
G01X25974Y67395D01*
G01X29514Y18223D02*
G01X29514Y18223D01*
G54D13*
G01X29515Y18223D03*
G01X31215Y18223D03*
G01X9830Y90359D03*
G01X11530Y90359D03*
G01X30023Y71563D03*
G01X31723Y71563D03*
G01X37389Y87565D03*
G01X39089Y87565D03*
G01X45390Y62292D03*
G01X47090Y62292D03*
G01X38532Y34860D03*
G01X40232Y34860D03*
G01X11227Y29907D03*
G01X12927Y29907D03*
G01X25451Y50227D03*
G01X27151Y50227D03*

%LPD*%
G36*
G01X31426Y64247D02*
G01X31205Y64329D01*
G01X31021Y64145D01*
G01X31102Y63924D01*
G01X31426Y64247D01*
G37*

%LPD*%
G36*
G01X27066Y69778D02*
G01X26608Y69778D01*
G01X26707Y69565D01*
G01X26967Y69565D01*
G01X27066Y69778D01*
G37*
G54D12*
G01X40233Y34860D03*
G01X31216Y18223D03*
G01X27152Y50227D03*
G01X12928Y29907D03*
G01X11531Y90359D03*
G01X31724Y71563D03*
G01X47091Y62292D03*
G01X39090Y87565D03*
G01X31407Y63943D03*
G01X26837Y69980D03*
G01X29514Y18223D03*
G01X11226Y29907D03*
G01X38531Y34860D03*
G01X25450Y50227D03*
G01X30022Y71563D03*
G01X45389Y62292D03*
G01X9829Y90359D03*
G01X37388Y87565D03*
G01X21856Y52079D03*
G01X25974Y67395D03*
M00*
M02*
