G04 Layer: BoardOutline*
G04 EasyEDA v6.4.7, 2020-11-14T12:43:57+01:00*
G04 ca67bbdea9ee427383f7cb57cdafcb35,58a91c2aa3f04fa292fc60144c522205,10*
G04 Gerber Generator version 0.2*
G04 Scale: 100 percent, Rotated: No, Reflected: No *
G04 Dimensions in millimeters *
G04 leading zeros omitted , absolute positions ,3 integer and 3 decimal *
%FSLAX33Y33*%
%MOMM*%
G90*
D02*

%ADD10C,0.254000*%
G54D10*
G01X840Y19288D02*
G01X932Y19597D01*
G01X1035Y19915D01*
G01X1148Y20240D01*
G01X1271Y20573D01*
G01X1547Y21259D01*
G01X1726Y21673D01*
G01X1890Y22034D01*
G01X2064Y22401D01*
G01X2279Y22837D01*
G01X2676Y23603D01*
G01X3110Y24390D01*
G01X3620Y25264D01*
G01X10190Y74150D02*
G01X9825Y75374D01*
G01X9653Y75928D01*
G01X9514Y76326D01*
G01X9459Y76462D01*
G01X9396Y76593D01*
G01X9345Y76678D01*
G01X9284Y76754D01*
G01X9232Y76799D01*
G01X9166Y76835D01*
G01X9106Y76852D01*
G01X9027Y76861D01*
G01X8760Y76854D01*
G01X11648Y69047D02*
G01X11350Y70169D01*
G01X11123Y70986D01*
G01X10818Y72038D01*
G01X10218Y74056D01*
G01X3661Y25332D02*
G01X4220Y26243D01*
G01X4713Y27012D01*
G01X5243Y27807D01*
G01X5836Y28664D01*
G01X6517Y29616D01*
G01X7239Y30604D01*
G01X8240Y31952D01*
G01X9432Y33537D01*
G01X8740Y76853D02*
G01X8433Y76851D01*
G01X8131Y76868D01*
G01X7876Y76905D01*
G01X7737Y76936D01*
G01X7623Y76968D01*
G01X7405Y77048D01*
G01X7199Y77152D01*
G01X7000Y77280D01*
G01X6790Y77447D01*
G01X15180Y42565D02*
G01X15304Y43000D01*
G01X15406Y43445D01*
G01X15487Y43905D01*
G01X15549Y44388D01*
G01X15593Y44899D01*
G01X15624Y45493D01*
G01X15638Y46136D01*
G01X15637Y46836D01*
G01X13672Y39470D02*
G01X13945Y39929D01*
G01X14192Y40364D01*
G01X14400Y40747D01*
G01X14603Y41145D01*
G01X14784Y41531D01*
G01X14921Y41850D01*
G01X15054Y42194D01*
G01X15171Y42536D01*
G01X15637Y46893D02*
G01X15618Y48256D01*
G01X15589Y49234D01*
G01X15567Y49682D01*
G01X15539Y50117D01*
G01X15469Y50912D01*
G01X15418Y51361D01*
G01X15356Y51835D01*
G01X15199Y52893D01*
G01X14988Y54164D01*
G01X14663Y56021D01*
G01X14636Y56172D02*
G01X14500Y56981D01*
G01X14405Y57613D01*
G01X14404Y57622D02*
G01X14371Y57842D01*
G01X14321Y58124D01*
G01X14189Y58768D01*
G01X14027Y59461D01*
G01X13836Y60202D01*
G01X13828Y60232D02*
G01X13660Y60885D01*
G01X13461Y61720D01*
G01X13283Y62517D01*
G01X13126Y63278D01*
G01X12853Y64465D02*
G01X12715Y64977D01*
G01X12545Y65670D01*
G01X13121Y63305D02*
G01X12982Y63957D01*
G01X12909Y64258D01*
G01X12855Y64458D01*
G01X12091Y67423D02*
G01X11651Y69035D01*
G01X12542Y65683D02*
G01X12336Y66510D01*
G01X12096Y67407D01*
G01X6774Y77461D02*
G01X6573Y77653D01*
G01X6381Y77866D01*
G01X6228Y78066D01*
G01X6171Y78157D01*
G01X6135Y78229D01*
G01X6133Y78235D02*
G01X6111Y78304D01*
G01X6088Y78405D01*
G01X6032Y78739D01*
G01X5973Y79190D01*
G01X5907Y79781D01*
G01X5752Y81401D01*
G01X5546Y83842D01*
G01X5537Y83951D02*
G01X5492Y84615D01*
G01X5444Y85518D01*
G01X5400Y86563D01*
G01X5368Y87509D01*
G01X5367Y87547D02*
G01X5306Y89372D01*
G01X5273Y90088D01*
G01X5238Y90700D01*
G01X5197Y91246D01*
G01X5158Y91643D01*
G01X5115Y91937D01*
G01X5089Y92061D01*
G01X5067Y92139D01*
G01X5063Y92149D02*
G01X5034Y92252D01*
G01X5022Y92366D01*
G01X5026Y92488D01*
G01X5044Y92619D01*
G01X5075Y92756D01*
G01X5120Y92897D01*
G01X5178Y93042D01*
G01X5259Y93212D01*
G01X5355Y93384D01*
G01X5448Y93528D01*
G01X5567Y93694D01*
G01X5678Y93830D01*
G01X5797Y93960D01*
G01X5922Y94082D01*
G01X6052Y94196D01*
G01X6188Y94298D01*
G01X6211Y94314D02*
G01X6417Y94441D01*
G01X6594Y94523D01*
G01X6803Y94590D01*
G01X7042Y94642D01*
G01X7372Y94693D01*
G01X7755Y94737D01*
G01X8282Y94786D01*
G01X9064Y94848D01*
G01X20082Y95559D02*
G01X21864Y95676D01*
G01X23700Y95777D01*
G01X14786Y95273D02*
G01X14826Y95266D01*
G01X14895Y95263D01*
G01X15220Y95266D01*
G01X15733Y95285D01*
G01X16352Y95315D01*
G01X18078Y95419D01*
G01X19998Y95553D01*
G01X12641Y95144D02*
G01X13388Y95205D01*
G01X14099Y95255D01*
G01X14578Y95278D01*
G01X14723Y95280D01*
G01X14784Y95274D01*
G01X9128Y94853D02*
G01X10758Y94984D01*
G01X12607Y95141D01*
G01X23733Y95778D02*
G01X25845Y95895D01*
G01X28436Y96060D01*
G01X30752Y96226D01*
G01X31664Y96299D01*
G01X32378Y96363D01*
G01X32427Y96367D02*
G01X33021Y96416D01*
G01X33780Y96463D01*
G01X34648Y96506D01*
G01X35525Y96538D01*
G01X35556Y96539D02*
G01X36337Y96566D01*
G01X37244Y96607D01*
G01X38105Y96656D01*
G01X38837Y96708D01*
G01X38860Y96710D02*
G01X42169Y96997D01*
G01X42201Y97000D02*
G01X43143Y97072D01*
G01X44219Y97138D01*
G01X45428Y97198D01*
G01X46451Y97237D01*
G01X46490Y97238D02*
G01X47550Y97274D01*
G01X48550Y97319D01*
G01X49495Y97370D01*
G01X50196Y97419D01*
G01X50219Y97421D02*
G01X51641Y97523D01*
G01X52978Y97598D01*
G01X53001Y97599D02*
G01X54392Y97661D01*
G01X55110Y97192D01*
G01X55110Y97192D02*
G01X55340Y97038D01*
G01X55513Y96913D01*
G01X55643Y96807D01*
G01X55757Y96698D01*
G01X55856Y96582D01*
G01X55942Y96455D01*
G01X56017Y96312D01*
G01X56072Y96178D01*
G01X56130Y95997D01*
G01X56181Y95789D01*
G01X56220Y95591D01*
G01X56261Y95323D01*
G01X56338Y94666D01*
G01X56430Y93661D01*
G01X56437Y93578D02*
G01X56509Y92676D01*
G01X56564Y91874D01*
G01X56591Y91313D01*
G01X56595Y91122D01*
G01X56589Y91024D01*
G01X56588Y91021D02*
G01X56580Y90958D01*
G01X56575Y90846D01*
G01X56580Y90486D01*
G01X56601Y89965D01*
G01X56637Y89303D01*
G01X56754Y87568D01*
G01X56926Y85429D01*
G01X56934Y85343D02*
G01X57122Y83112D01*
G01X57160Y82543D01*
G01X57174Y82199D01*
G01X57171Y81925D01*
G01X57148Y81729D01*
G01X57128Y81642D01*
G01X57103Y81563D01*
G01X57016Y81360D01*
G01X57009Y81345D02*
G01X56899Y81131D01*
G01X56834Y81027D01*
G01X56750Y80907D01*
G01X56658Y80789D01*
G01X56573Y80690D01*
G01X56386Y80499D01*
G01X56157Y80301D01*
G01X55924Y80129D01*
G01X55670Y79967D01*
G01X55395Y79815D01*
G01X55372Y79803D02*
G01X54740Y79484D01*
G01X54657Y78651D01*
G01X54657Y78651D02*
G01X54608Y78256D01*
G01X54531Y77750D01*
G01X54433Y77187D01*
G01X54336Y76699D01*
G01X54332Y76680D02*
G01X54139Y75696D01*
G01X54053Y75206D01*
G01X53989Y74801D01*
G01X53987Y74788D02*
G01X53929Y74420D01*
G01X53864Y74067D01*
G01X53785Y73679D01*
G01X53696Y73293D01*
G01X53692Y73280D02*
G01X53603Y72902D01*
G01X53531Y72559D01*
G01X53456Y72175D01*
G01X53400Y71842D01*
G01X53399Y71830D02*
G01X53339Y71477D01*
G01X53266Y71104D01*
G01X53188Y70749D01*
G01X53115Y70450D01*
G01X53112Y70439D02*
G01X53020Y70060D01*
G01X52920Y69606D01*
G01X52817Y69109D01*
G01X52719Y68602D01*
G01X52716Y68583D02*
G01X52507Y67521D01*
G01X52323Y66681D01*
G01X51129Y61507D02*
G01X50970Y60863D01*
G01X50840Y60298D01*
G01X51474Y63015D02*
G01X51297Y62205D01*
G01X51132Y61519D01*
G01X52320Y66669D02*
G01X51780Y64403D01*
G01X51617Y63688D01*
G01X51478Y63038D01*
G01X49466Y54569D02*
G01X49372Y54147D01*
G01X49262Y53687D01*
G01X49170Y53323D01*
G01X49082Y53012D01*
G01X50838Y60290D02*
G01X50675Y59570D01*
G01X50456Y58655D01*
G01X50184Y57553D01*
G01X49947Y56616D01*
G01X49937Y56578D02*
G01X49689Y55559D01*
G01X49469Y54586D01*
G01X49080Y53003D02*
G01X48995Y52709D01*
G01X48929Y52445D01*
G01X48868Y52168D01*
G01X48813Y51878D01*
G01X48764Y51574D01*
G01X48713Y51200D01*
G01X48675Y50862D01*
G01X48643Y50507D01*
G01X48594Y49743D01*
G01X48565Y48902D01*
G01X48557Y47894D01*
G01X48569Y46867D01*
G01X48571Y46777D02*
G01X48605Y45587D01*
G01X48654Y44490D01*
G01X48712Y43580D01*
G01X48740Y43277D01*
G01X48765Y43079D01*
G01X48767Y43065D02*
G01X48951Y41983D01*
G01X49086Y41270D01*
G01X49218Y40697D01*
G01X49389Y40052D01*
G01X49397Y40021D02*
G01X49513Y39612D01*
G01X49673Y39082D01*
G01X49835Y38579D01*
G01X49996Y38104D01*
G01X50200Y37536D01*
G01X50371Y37077D01*
G01X50588Y36520D01*
G01X50783Y36035D01*
G01X50802Y35990D02*
G01X51063Y35342D01*
G01X51273Y34795D01*
G01X51458Y34281D01*
G01X51638Y33744D01*
G01X51790Y33248D01*
G01X51933Y32734D01*
G01X52073Y32189D01*
G01X52227Y31542D01*
G01X52368Y27697D02*
G01X52242Y27188D01*
G01X52140Y26741D01*
G01X52239Y31489D02*
G01X52274Y31313D01*
G01X52307Y31111D01*
G01X52359Y30686D01*
G01X52403Y30166D01*
G01X52437Y29526D01*
G01X52449Y28944D01*
G01X52442Y28415D01*
G01X52417Y28009D01*
G01X52397Y27846D01*
G01X52373Y27715D01*
G01X52139Y26733D02*
G01X52105Y26595D01*
G01X52059Y26445D01*
G01X51936Y26117D01*
G01X51764Y25732D01*
G01X51558Y25333D01*
G01X51329Y24936D01*
G01X51103Y24584D01*
G01X50871Y24260D01*
G01X50641Y23977D01*
G01X50622Y23955D02*
G01X50328Y23641D01*
G01X50017Y23339D01*
G01X49689Y23049D01*
G01X49285Y22726D01*
G01X48921Y22463D01*
G01X48539Y22211D01*
G01X48139Y21970D01*
G01X47722Y21742D01*
G01X47287Y21525D01*
G01X46834Y21319D01*
G01X46283Y21094D01*
G01X45790Y20913D01*
G01X45279Y20743D01*
G01X44749Y20584D01*
G01X44107Y20413D01*
G01X43536Y20278D01*
G01X43439Y20257D02*
G01X43133Y20184D01*
G01X42868Y20112D01*
G01X42599Y20031D01*
G01X42326Y19941D01*
G01X42005Y19824D01*
G01X41727Y19716D01*
G01X41447Y19598D01*
G01X41165Y19473D01*
G01X40599Y19198D01*
G01X40030Y18892D01*
G01X39462Y18557D01*
G01X39133Y18348D01*
G01X38851Y18161D01*
G01X38805Y18130D02*
G01X38207Y17706D01*
G01X37684Y17308D01*
G01X37152Y16880D01*
G01X36610Y16419D01*
G01X36057Y15926D01*
G01X35494Y15401D01*
G01X34920Y14844D01*
G01X34335Y14253D01*
G01X33739Y13629D01*
G01X33131Y12972D01*
G01X32406Y12162D01*
G01X31772Y11431D01*
G01X31016Y10534D01*
G01X30354Y9728D01*
G01X29679Y8887D01*
G01X28990Y8010D01*
G01X28874Y7860D02*
G01X28140Y6929D01*
G01X27478Y6121D01*
G01X26915Y5471D01*
G01X26647Y5176D01*
G01X26385Y4898D01*
G01X26129Y4636D01*
G01X25877Y4389D01*
G01X25626Y4155D01*
G01X25375Y3931D01*
G01X25124Y3717D01*
G01X24826Y3477D01*
G01X24566Y3277D01*
G01X24300Y3081D01*
G01X24255Y3049D02*
G01X23764Y2707D01*
G01X23346Y2432D01*
G01X22930Y2173D01*
G01X22516Y1929D01*
G01X22103Y1701D01*
G01X21692Y1488D01*
G01X21213Y1259D01*
G01X20803Y1079D01*
G01X20393Y914D01*
G01X19983Y764D01*
G01X19572Y628D01*
G01X19161Y507D01*
G01X18679Y383D01*
G01X18264Y293D01*
G01X17847Y217D01*
G01X17428Y155D01*
G01X17358Y146D02*
G01X16752Y74D01*
G01X16306Y32D01*
G01X15902Y7D01*
G01X15517Y0D01*
G01X15128Y10D01*
G01X14712Y39D01*
G01X14287Y81D01*
G01X13656Y157D01*
G01X11824Y556D02*
G01X11609Y646D01*
G01X11409Y720D01*
G01X11242Y771D01*
G01X11148Y788D01*
G01X13606Y163D02*
G01X13097Y241D01*
G01X12583Y341D01*
G01X12142Y449D01*
G01X11961Y504D01*
G01X11833Y552D01*
G01X11146Y788D02*
G01X11065Y803D01*
G01X10939Y846D01*
G01X10774Y914D01*
G01X10575Y1004D01*
G01X10092Y1243D01*
G01X9432Y1593D01*
G01X8779Y1958D01*
G01X8138Y2334D01*
G01X7643Y2640D01*
G01X7190Y2940D01*
G01X7158Y2963D02*
G01X6915Y3143D01*
G01X6631Y3368D01*
G01X6314Y3631D01*
G01X5946Y3948D01*
G01X5563Y4288D01*
G01X5208Y4612D01*
G01X4860Y4938D01*
G01X4505Y5284D01*
G01X4479Y5310D02*
G01X3972Y5824D01*
G01X3571Y6251D01*
G01X3200Y6666D01*
G01X2856Y7074D01*
G01X2487Y7544D01*
G01X2198Y7944D01*
G01X1932Y8346D01*
G01X1687Y8750D01*
G01X1461Y9161D01*
G01X1253Y9580D01*
G01X1062Y10011D01*
G01X886Y10457D01*
G01X723Y10919D01*
G01X571Y11401D01*
G01X430Y11906D01*
G01X276Y12527D01*
G01X255Y12619D02*
G01X199Y12810D01*
G01X139Y13044D01*
G01X100Y13227D01*
G01X61Y13453D01*
G01X38Y13630D01*
G01X17Y13847D01*
G01X4Y14061D01*
G01X0Y14270D01*
G01X8Y14639D01*
G01X40Y15078D01*
G01X89Y15504D01*
G01X188Y16260D01*
G01X231Y16670D01*
G01X470Y18070D02*
G01X653Y18656D01*
G01X836Y19276D01*
G01X234Y16707D02*
G01X271Y17060D01*
G01X333Y17469D01*
G01X401Y17813D01*
G01X467Y18061D01*
G01X9532Y33670D02*
G01X11179Y35864D01*
G01X11813Y36723D01*
G01X12293Y37387D01*
G01X12693Y37957D01*
G01X13035Y38461D01*
G01X13338Y38930D01*
G01X13648Y39430D01*

%LPD*%
M00*
M02*
