G04 Layer: BottomPasteMaskLayer*
G04 EasyEDA v6.4.7, 2020-11-14T12:43:57+01:00*
G04 ca67bbdea9ee427383f7cb57cdafcb35,58a91c2aa3f04fa292fc60144c522205,10*
G04 Gerber Generator version 0.2*
G04 Scale: 100 percent, Rotated: No, Reflected: No *
G04 Dimensions in millimeters *
G04 leading zeros omitted , absolute positions ,3 integer and 3 decimal *
%FSLAX33Y33*%
%MOMM*%
G90*
D02*

%ADD14C,0.280010*%
%ADD17C,1.299997*%

%LPD*%
G54D14*
G01X29070Y61638D02*
G01X29070Y61118D01*
G01X28569Y61638D02*
G01X28569Y61118D01*
G01X28069Y61638D02*
G01X28069Y61118D01*
G01X27569Y61638D02*
G01X27569Y61118D01*
G01X27071Y61638D02*
G01X27071Y61118D01*
G01X26571Y61638D02*
G01X26571Y61118D01*
G01X26070Y61638D02*
G01X26070Y61118D01*
G01X25570Y61638D02*
G01X25570Y61118D01*
G01X25565Y66248D02*
G01X25565Y66768D01*
G01X26065Y66248D02*
G01X26065Y66768D01*
G01X26565Y66248D02*
G01X26565Y66768D01*
G01X27066Y66248D02*
G01X27066Y66768D01*
G01X27564Y66248D02*
G01X27564Y66768D01*
G01X28064Y66248D02*
G01X28064Y66768D01*
G01X28564Y66248D02*
G01X28564Y66768D01*
G01X29065Y66248D02*
G01X29065Y66768D01*
G01X25012Y65696D02*
G01X24492Y65696D01*
G01X25012Y65195D02*
G01X24492Y65195D01*
G01X25012Y64695D02*
G01X24492Y64695D01*
G01X25012Y64194D02*
G01X24492Y64194D01*
G01X25012Y63697D02*
G01X24492Y63697D01*
G01X25012Y63196D02*
G01X24492Y63196D01*
G01X25012Y62696D02*
G01X24492Y62696D01*
G01X25012Y62195D02*
G01X24492Y62195D01*
G01X29623Y62190D02*
G01X30143Y62190D01*
G01X29623Y62691D02*
G01X30143Y62691D01*
G01X29623Y63191D02*
G01X30143Y63191D01*
G01X29623Y63691D02*
G01X30143Y63691D01*
G01X29623Y64189D02*
G01X30143Y64189D01*
G01X29623Y64690D02*
G01X30143Y64690D01*
G01X29623Y65190D02*
G01X30143Y65190D01*
G01X29623Y65690D02*
G01X30143Y65690D01*
G36*
G01X33537Y63393D02*
G01X34537Y63393D01*
G01X34537Y64493D01*
G01X33537Y64493D01*
G01X33537Y63393D01*
G37*
G36*
G01X35337Y63393D02*
G01X36337Y63393D01*
G01X36337Y64493D01*
G01X35337Y64493D01*
G01X35337Y63393D01*
G37*
G36*
G01X17408Y63139D02*
G01X18408Y63139D01*
G01X18408Y64239D01*
G01X17408Y64239D01*
G01X17408Y63139D01*
G37*
G36*
G01X19208Y63139D02*
G01X20208Y63139D01*
G01X20208Y64239D01*
G01X19208Y64239D01*
G01X19208Y63139D01*
G37*
G36*
G01X27021Y73344D02*
G01X27021Y72344D01*
G01X28121Y72344D01*
G01X28121Y73344D01*
G01X27021Y73344D01*
G37*
G36*
G01X27021Y71544D02*
G01X27021Y70544D01*
G01X28121Y70544D01*
G01X28121Y71544D01*
G01X27021Y71544D01*
G37*
G36*
G01X20208Y66271D02*
G01X19208Y66271D01*
G01X19208Y65171D01*
G01X20208Y65171D01*
G01X20208Y66271D01*
G37*
G36*
G01X18408Y66271D02*
G01X17408Y66271D01*
G01X17408Y65171D01*
G01X18408Y65171D01*
G01X18408Y66271D01*
G37*
G36*
G01X19397Y50142D02*
G01X18397Y50142D01*
G01X18397Y49042D01*
G01X19397Y49042D01*
G01X19397Y50142D01*
G37*
G36*
G01X20997Y50142D02*
G01X19997Y50142D01*
G01X19997Y49042D01*
G01X20997Y49042D01*
G01X20997Y50142D01*
G37*
G54D17*
G01X20586Y58609D03*
G01X18046Y58609D03*
G01X20586Y56069D03*
G01X18046Y56069D03*
G01X20586Y53529D03*
G01X18046Y53529D03*
G36*
G01X40976Y63195D02*
G01X40976Y62545D01*
G01X41776Y62545D01*
G01X41776Y63195D01*
G01X40976Y63195D01*
G37*
G36*
G01X42576Y63195D02*
G01X42576Y62545D01*
G01X43376Y62545D01*
G01X43376Y63195D01*
G01X42576Y63195D01*
G37*
G36*
G01X40976Y63920D02*
G01X40976Y63420D01*
G01X41776Y63420D01*
G01X41776Y63920D01*
G01X40976Y63920D01*
G37*
G36*
G01X42576Y63920D02*
G01X42576Y63420D01*
G01X43376Y63420D01*
G01X43376Y63920D01*
G01X42576Y63920D01*
G37*
G36*
G01X40976Y64720D02*
G01X40976Y64220D01*
G01X41776Y64220D01*
G01X41776Y64720D01*
G01X40976Y64720D01*
G37*
G36*
G01X42576Y64720D02*
G01X42576Y64220D01*
G01X43376Y64220D01*
G01X43376Y64720D01*
G01X42576Y64720D01*
G37*
G36*
G01X40976Y65595D02*
G01X40976Y64945D01*
G01X41776Y64945D01*
G01X41776Y65595D01*
G01X40976Y65595D01*
G37*
G36*
G01X42576Y65595D02*
G01X42576Y64945D01*
G01X43376Y64945D01*
G01X43376Y65595D01*
G01X42576Y65595D01*
G37*
G36*
G01X26950Y54983D02*
G01X26300Y54983D01*
G01X26300Y54183D01*
G01X26950Y54183D01*
G01X26950Y54983D01*
G37*
G36*
G01X26950Y53383D02*
G01X26300Y53383D01*
G01X26300Y52583D01*
G01X26950Y52583D01*
G01X26950Y53383D01*
G37*
G36*
G01X27675Y54983D02*
G01X27175Y54983D01*
G01X27175Y54183D01*
G01X27675Y54183D01*
G01X27675Y54983D01*
G37*
G36*
G01X27675Y53383D02*
G01X27175Y53383D01*
G01X27175Y52583D01*
G01X27675Y52583D01*
G01X27675Y53383D01*
G37*
G36*
G01X28475Y54983D02*
G01X27975Y54983D01*
G01X27975Y54183D01*
G01X28475Y54183D01*
G01X28475Y54983D01*
G37*
G36*
G01X28475Y53383D02*
G01X27975Y53383D01*
G01X27975Y52583D01*
G01X28475Y52583D01*
G01X28475Y53383D01*
G37*
G36*
G01X29350Y54983D02*
G01X28700Y54983D01*
G01X28700Y54183D01*
G01X29350Y54183D01*
G01X29350Y54983D01*
G37*
G36*
G01X29350Y53383D02*
G01X28700Y53383D01*
G01X28700Y52583D01*
G01X29350Y52583D01*
G01X29350Y53383D01*
G37*
G36*
G01X49643Y85728D02*
G01X46143Y85728D01*
G01X46143Y81528D01*
G01X49643Y81528D01*
G01X49643Y85728D01*
G37*
G36*
G01X19667Y85728D02*
G01X16167Y85728D01*
G01X16167Y81528D01*
G01X19667Y81528D01*
G01X19667Y85728D01*
G37*
G36*
G01X25517Y65743D02*
G01X25517Y62143D01*
G01X29117Y62143D01*
G01X29117Y65743D01*
G01X25517Y65743D01*
G37*
M00*
M02*
